<?xml version="1.0" encoding="utf-8"?>
<!-- Generator: Adobe Illustrator 24.0.0, SVG Export Plug-In . SVG Version: 6.00 Build 0)  -->
<svg version="1.1" id="Layer_1" xmlns="http://www.w3.org/2000/svg" xmlns:xlink="http://www.w3.org/1999/xlink" x="0px" y="0px"
	 viewBox="0 0 546.5 265.3" style="enable-background:new 0 0 546.5 265.3;" xml:space="preserve">
<style type="text/css">
	.st0{fill:#FFFFFF;}
	.st1{fill:#67788A;}
	.st2{fill:none;stroke:#67788A;stroke-width:2;stroke-miterlimit:10;}
</style>
<g>
	<path class="st0" d="M526.2,0h-506C9.1,0,0,9.1,0,20.3v224.8c0,11.2,9.1,20.3,20.3,20.3h506c11.2,0,20.3-9.1,20.3-20.3V20.3
		C546.5,9.1,537.4,0,526.2,0z"/>
	<g>
		<g>
			<g>
				<path class="st1" d="M47.8,217.1v-23.8h10.5c2.7,0,4.8,0.5,6.2,1.6c1.4,1.1,2.1,2.6,2.1,4.5c0,1.2-0.3,2.2-0.8,3.1s-1.6,1.6-3,2
					c1.8,0.4,3.1,1.2,3.9,2.2c0.8,1,1.2,2.3,1.2,3.8c0,2.1-0.7,3.7-2.2,4.8c-1.5,1.2-3.6,1.7-6.4,1.7H47.8z M57.9,197.4h-5.3v5.8
					h5.5c1.3,0,2.2-0.2,2.8-0.7c0.6-0.5,0.9-1.2,0.9-2.2C61.8,198.4,60.5,197.4,57.9,197.4z M59,207.3h-6.4v5.8H59c2.7,0,4-1,4-2.9
					c0-1-0.3-1.7-0.9-2.2C61.5,207.5,60.5,207.3,59,207.3z"/>
				<path class="st1" d="M88.4,217.6c-2.1,0-3.9-0.4-5.4-1.2c-1.5-0.8-2.6-2-3.4-3.5c-0.8-1.5-1.2-3.2-1.2-5.2v-14.3h4.9v14.3
					c0,1.8,0.5,3.1,1.4,4.1c0.9,1,2.2,1.5,3.8,1.5H89c1.6,0,2.8-0.5,3.8-1.5c0.9-1,1.4-2.3,1.4-4.1v-14.3H99v14.3
					c0,2-0.4,3.7-1.2,5.2c-0.8,1.5-1.9,2.6-3.4,3.5c-1.5,0.8-3.3,1.2-5.4,1.2H88.4z"/>
				<path class="st1" d="M119.4,217.6c-2.3,0-4.4-0.4-6.1-1.2c-1.7-0.8-3.2-1.9-4.2-3.4l3.1-3.1c0.9,1.1,2,2,3.2,2.5s2.5,0.8,4,0.8
					h0.5c3.1,0,4.6-0.9,4.6-2.6c0-0.6-0.2-1.2-0.6-1.5c-0.4-0.4-0.9-0.7-1.5-0.9c-0.6-0.2-1.2-0.4-1.8-0.5l-3.6-0.7
					c-0.7-0.1-1.5-0.3-2.3-0.6c-0.8-0.3-1.6-0.7-2.4-1.2c-0.7-0.5-1.3-1.2-1.8-2c-0.5-0.8-0.7-1.8-0.7-3c0-1.5,0.4-2.8,1.2-3.8
					c0.8-1.1,1.9-1.9,3.3-2.5s3-0.9,4.9-0.9h0.5c2,0,3.7,0.4,5.3,1.1c1.5,0.7,2.9,1.8,4,3.2l-3,2.9c-0.9-1.1-1.9-1.9-3-2.3
					c-1-0.5-2.1-0.7-3.3-0.7h-0.5c-1.4,0-2.5,0.2-3.3,0.7c-0.8,0.5-1.2,1.1-1.2,1.9c0,0.8,0.3,1.4,1,1.8s1.5,0.6,2.5,0.8l3.6,0.7
					c0.6,0.1,1.3,0.3,2.2,0.5c0.8,0.2,1.7,0.6,2.5,1.1c0.8,0.5,1.5,1.2,2,2.1c0.5,0.9,0.8,2,0.8,3.4c0,2.3-0.8,4.1-2.5,5.4
					c-1.7,1.3-4,1.9-6.9,1.9H119.4z"/>
				<path class="st1" d="M140.5,217.1v-23.8h4.9v23.8H140.5z"/>
				<path class="st1" d="M158.1,217.1v-23.8h5.3l10.5,17.1v-17.1h4.7v23.8h-5.3l-10.5-17.1v17.1H158.1z"/>
				<path class="st1" d="M191.5,217.1v-23.8h17.7v4.3h-12.9v5.4h10.4v4.3h-10.4v5.4h13.2v4.3H191.5z"/>
				<path class="st1" d="M229.5,217.6c-2.3,0-4.4-0.4-6.1-1.2c-1.7-0.8-3.2-1.9-4.2-3.4l3.1-3.1c0.9,1.1,2,2,3.2,2.5s2.5,0.8,4,0.8
					h0.5c3.1,0,4.6-0.9,4.6-2.6c0-0.6-0.2-1.2-0.6-1.5c-0.4-0.4-0.9-0.7-1.5-0.9c-0.6-0.2-1.2-0.4-1.8-0.5l-3.6-0.7
					c-0.7-0.1-1.5-0.3-2.3-0.6c-0.8-0.3-1.6-0.7-2.4-1.2c-0.7-0.5-1.3-1.2-1.8-2c-0.5-0.8-0.7-1.8-0.7-3c0-1.5,0.4-2.8,1.2-3.8
					c0.8-1.1,1.9-1.9,3.3-2.5s3-0.9,4.9-0.9h0.5c2,0,3.7,0.4,5.3,1.1c1.5,0.7,2.9,1.8,4,3.2l-3,2.9c-0.9-1.1-1.9-1.9-3-2.3
					c-1-0.5-2.1-0.7-3.3-0.7h-0.5c-1.4,0-2.5,0.2-3.3,0.7c-0.8,0.5-1.2,1.1-1.2,1.9c0,0.8,0.3,1.4,1,1.8s1.5,0.6,2.5,0.8l3.6,0.7
					c0.6,0.1,1.3,0.3,2.2,0.5c0.8,0.2,1.7,0.6,2.5,1.1c0.8,0.5,1.5,1.2,2,2.1c0.5,0.9,0.8,2,0.8,3.4c0,2.3-0.8,4.1-2.5,5.4
					c-1.7,1.3-4,1.9-6.9,1.9H229.5z"/>
				<path class="st1" d="M258.8,217.6c-2.3,0-4.4-0.4-6.1-1.2c-1.7-0.8-3.2-1.9-4.2-3.4l3.1-3.1c0.9,1.1,2,2,3.2,2.5s2.5,0.8,4,0.8
					h0.5c3.1,0,4.6-0.9,4.6-2.6c0-0.6-0.2-1.2-0.6-1.5c-0.4-0.4-0.9-0.7-1.5-0.9c-0.6-0.2-1.2-0.4-1.8-0.5l-3.6-0.7
					c-0.7-0.1-1.5-0.3-2.3-0.6c-0.8-0.3-1.6-0.7-2.4-1.2c-0.7-0.5-1.3-1.2-1.8-2c-0.5-0.8-0.7-1.8-0.7-3c0-1.5,0.4-2.8,1.2-3.8
					c0.8-1.1,1.9-1.9,3.3-2.5s3-0.9,4.9-0.9h0.5c2,0,3.7,0.4,5.3,1.1c1.5,0.7,2.9,1.8,4,3.2l-3,2.9c-0.9-1.1-1.9-1.9-3-2.3
					c-1-0.5-2.1-0.7-3.3-0.7h-0.5c-1.4,0-2.5,0.2-3.3,0.7c-0.8,0.5-1.2,1.1-1.2,1.9c0,0.8,0.3,1.4,1,1.8s1.5,0.6,2.5,0.8l3.6,0.7
					c0.6,0.1,1.3,0.3,2.2,0.5c0.8,0.2,1.7,0.6,2.5,1.1c0.8,0.5,1.5,1.2,2,2.1c0.5,0.9,0.8,2,0.8,3.4c0,2.3-0.8,4.1-2.5,5.4
					c-1.7,1.3-4,1.9-6.9,1.9H258.8z"/>
				<path class="st1" d="M293.8,217.1v-23.8h10.4c3.1,0,5.4,0.7,6.9,2.2c1.5,1.5,2.3,3.5,2.3,6c0,2.5-0.8,4.5-2.3,6
					s-3.8,2.2-6.9,2.2h-5.6v7.5H293.8z M303.7,197.7h-5v7.7h5c1.6,0,2.8-0.3,3.6-1s1.1-1.6,1.1-2.9c0-1.3-0.4-2.2-1.1-2.9
					C306.6,198,305.4,197.7,303.7,197.7z"/>
				<path class="st1" d="M320.7,217.1c0.7-2.6,1.5-5.3,2.5-8c0.9-2.7,1.9-5.4,3-8.1c1-2.7,2.1-5.2,3.2-7.6h5.9
					c1.1,2.4,2.2,5,3.2,7.6c1,2.7,2,5.4,3,8.1c0.9,2.7,1.7,5.4,2.5,8h-5.2c-0.2-0.9-0.5-1.8-0.7-2.8c-0.3-0.9-0.5-1.9-0.8-2.8h-9.9
					c-0.3,1-0.6,1.9-0.8,2.8c-0.3,0.9-0.5,1.9-0.7,2.8H320.7z M328.6,207.3h7.2c-0.6-1.7-1.1-3.4-1.8-5.1s-1.2-3.3-1.9-4.9
					c-0.6,1.6-1.3,3.2-1.9,4.9C329.8,204,329.2,205.6,328.6,207.3z"/>
				<path class="st1" d="M354.6,217.1v-23.8h10.6c3.1,0,5.5,0.7,7,2.1c1.6,1.4,2.3,3.2,2.3,5.6c0,1.7-0.4,3.2-1.2,4.4
					c-0.8,1.2-2,2.1-3.7,2.7c1,1.4,2,2.9,2.9,4.4s1.9,3.1,2.7,4.7H370c-0.8-1.5-1.6-3-2.5-4.4s-1.7-2.8-2.5-4h-5.6v8.4H354.6z
					 M364.7,197.5h-5.3v7.1h5.3c1.7,0,2.9-0.3,3.7-0.9s1.2-1.5,1.2-2.7c0-1.2-0.4-2.1-1.2-2.7C367.6,197.8,366.4,197.5,364.7,197.5z
					"/>
				<path class="st1" d="M391.8,217.1v-19.4h-7.7v-4.4h20.2v4.4h-7.7v19.4H391.8z"/>
				<path class="st1" d="M414.7,217.1v-23.8h5.3l10.5,17.1v-17.1h4.7v23.8h-5.3l-10.5-17.1v17.1H414.7z"/>
				<path class="st1" d="M448.1,217.1v-23.8h17.7v4.3h-12.9v5.4h10.4v4.3h-10.4v5.4h13.2v4.3H448.1z"/>
				<path class="st1" d="M477.9,217.1v-23.8h10.6c3.1,0,5.5,0.7,7,2.1c1.6,1.4,2.3,3.2,2.3,5.6c0,1.7-0.4,3.2-1.2,4.4
					c-0.8,1.2-2,2.1-3.7,2.7c1,1.4,2,2.9,2.9,4.4s1.9,3.1,2.7,4.7h-5.4c-0.8-1.5-1.6-3-2.5-4.4s-1.7-2.8-2.5-4h-5.6v8.4H477.9z
					 M488,197.5h-5.3v7.1h5.3c1.7,0,2.9-0.3,3.7-0.9s1.2-1.5,1.2-2.7c0-1.2-0.4-2.1-1.2-2.7C490.9,197.8,489.7,197.5,488,197.5z"/>
			</g>
			<g>
				<path class="st1" d="M83.6,47.6v6.3c0,0.4-0.3,0.7-0.7,0.7h-27v12.8h22.3c0.4,0,0.7,0.3,0.7,0.7v6.3c0,0.4-0.3,0.7-0.7,0.7H55.9
					v19c0,0.4-0.3,0.7-0.7,0.7h-6.8c-0.4,0-0.7-0.3-0.7-0.7V47.6c0-0.4,0.3-0.7,0.7-0.7h34.4C83.3,46.9,83.6,47.2,83.6,47.6z"/>
				<path class="st1" d="M138.6,94.7h-7.4c-0.4,0-0.7-0.2-0.8-0.6c-1-3.9-2.2-8.1-3.6-12.2H104c-1.4,4.2-2.6,8.3-3.5,12.2
					c-0.1,0.4-0.4,0.6-0.8,0.6h-7.2c-0.5,0-0.8-0.3-0.6-0.8c4.3-15.2,10.9-32,17.5-46.2c0.3-0.6,0.7-0.9,1.3-0.9h9.7
					c0.6,0,1,0.2,1.3,0.9c6.7,14.1,13.1,30.9,17.5,46.2C139.3,94.4,139.1,94.7,138.6,94.7z M124.3,74.5c-2.5-6.9-5.3-13.8-8.1-20.1
					h-1.6c-2.8,6.3-5.6,13.2-8.1,20.1H124.3z"/>
				<path class="st1" d="M150.8,71.2c0-14.8,9.8-25.2,23.7-25.2h1c8.7,0,15.5,4.4,19.1,10.9c0.2,0.4,0.2,0.8-0.2,1l-6,3
					c-0.4,0.2-0.9,0.2-1.2-0.3c-2.5-4.4-6.3-6.7-11.9-6.7h-1c-8.8,0-14.8,7-14.8,17.1c0,10.1,5.9,16.9,14.8,16.9h1
					c5.7,0,9.1-1.9,11.6-4.9c0.3-0.4,0.7-0.4,1.1-0.2l6.2,3c0.2,0.1,0.3,0.3,0.3,0.5c0,0.2-0.1,0.3-0.2,0.5
					c-3.8,5.5-10.6,8.9-18.9,8.9h-1C160.2,95.6,150.8,85.9,150.8,71.2z"/>
				<path class="st1" d="M249,87.7V94c0,0.4-0.3,0.7-0.7,0.7h-35.8c-0.4,0-0.7-0.3-0.7-0.7V47.6c0-0.4,0.3-0.7,0.7-0.7h35.2
					c0.4,0,0.7,0.3,0.7,0.7v6.3c0,0.4-0.3,0.7-0.7,0.7h-27.8V67h22.6c0.4,0,0.7,0.3,0.7,0.7v6.2c0,0.4-0.3,0.7-0.7,0.7h-22.6V87
					h28.4C248.7,87,249,87.3,249,87.7z"/>
				<path class="st1" d="M310.7,81.6c0,8.4-6.4,13.1-17.8,13.1h-23.5c-0.4,0-0.7-0.3-0.7-0.7V47.6c0-0.4,0.3-0.7,0.7-0.7h21.4
					c11,0,17,4.4,17,12.4c0,5.3-2.7,8.7-8.1,10.3C307.4,71.2,310.7,75.7,310.7,81.6z M290.7,54.3h-13.8v12.8h13.8c6.2,0,9-2,9-6.4
					S296.9,54.3,290.7,54.3z M302.4,80.9c0-4.4-2.9-6.5-9.4-6.5h-16.1v12.8H293C299.5,87.3,302.4,85.3,302.4,80.9z"/>
				<path class="st1" d="M325,70.8c0-14.4,9.6-24.8,24.6-24.8h1c15,0,24.6,10.4,24.6,24.8c0,14.4-9.6,24.8-24.6,24.8h-1
					C334.6,95.6,325,85.2,325,70.8z M350.6,87.8c9.8,0,16-6.7,16-17c0-10.3-6.2-17-16-17h-1c-9.8,0-16,6.7-16,17
					c0,10.3,6.2,17,16,17H350.6z"/>
				<path class="st1" d="M389,70.8c0-14.4,9.6-24.8,24.6-24.8h1c15,0,24.6,10.4,24.6,24.8c0,14.4-9.6,24.8-24.6,24.8h-1
					C398.6,95.6,389,85.2,389,70.8z M414.7,87.8c9.8,0,16-6.7,16-17c0-10.3-6.2-17-16-17h-1c-9.8,0-16,6.7-16,17
					c0,10.3,6.2,17,16,17H414.7z"/>
				<path class="st1" d="M498.1,94.7h-8.8c-0.6,0-0.8-0.1-1.2-0.6c-6.2-7.3-13.5-14.5-19.7-19.8h-4V94c0,0.4-0.3,0.7-0.7,0.7H457
					c-0.4,0-0.7-0.3-0.7-0.7V47.6c0-0.4,0.3-0.7,0.7-0.7h6.8c0.4,0,0.7,0.3,0.7,0.7v18.8h4c6.7-6,12.8-12.5,17.8-19
					c0.3-0.4,0.6-0.5,1-0.5h8.3c0.4,0,0.6,0.2,0.6,0.5c0,0.1-0.1,0.3-0.2,0.5c-7.3,9-14.6,16.5-21.3,22.2
					c8.5,7.2,16.5,15.2,23.8,23.8C498.9,94.3,498.7,94.7,498.1,94.7z"/>
			</g>
		</g>
		<line class="st2" x1="47.8" y1="145.1" x2="498.7" y2="145.1"/>
	</g>
</g>
</svg>
