<?xml version="1.0" encoding="UTF-8"?>
<svg width="100px" height="100px" viewBox="0 0 100 100" version="1.1" xmlns="http://www.w3.org/2000/svg" xmlns:xlink="http://www.w3.org/1999/xlink">
    <title>icn_analysis</title>
    <g id="Symbols" stroke="none" stroke-width="1" fill="none" fill-rule="evenodd">
        <g id="What-we-offer" transform="translate(-420.000000, -204.000000)" fill="#427FE0" fill-rule="nonzero">
            <g id="Group" transform="translate(0.000000, 164.000000)">
                <g id="icn_analysis" transform="translate(420.000000, 40.000000)">
                    <path d="M64.6039604,0 C45.0865858,0 29.2079208,15.878469 29.2079208,35.3960396 C29.2079208,54.9136102 45.0865858,70.7920792 64.6039604,70.7920792 C84.121335,70.7920792 100,54.9134142 100,35.3960396 C100,15.878665 84.121531,0 64.6039604,0 Z M53.2408073,47.9891459 C53.2408073,49.6141893 51.9234482,50.9315484 50.2984048,50.9315484 C48.6733615,50.9315484 47.3560024,49.6141893 47.3560024,47.9891459 L47.3560024,22.064687 C47.3560024,20.4396436 48.6733615,19.1222845 50.2984048,19.1222845 C51.9234482,19.1222845 53.2408073,20.4396436 53.2408073,22.064687 L53.2408073,47.9891459 Z M63.5335326,47.9891459 C63.5335326,49.6141893 62.2161735,50.9315484 60.5911302,50.9315484 C58.9660868,50.9315484 57.6487277,49.6141893 57.6487277,47.9891459 L57.6487277,28.4578569 C57.6487277,26.8328135 58.9660868,25.5154544 60.5911302,25.5154544 C62.2161735,25.5154544 63.5335326,26.8328135 63.5335326,28.4578569 L63.5335326,47.9891459 Z M73.4066707,47.8131584 C73.4066707,49.4382017 72.0893116,50.7555608 70.4642682,50.7555608 C68.8392248,50.7555608 67.5218657,49.4382017 67.5218657,47.8131584 L67.5218657,21.8886994 C67.5218657,20.263656 68.8392248,18.9462969 70.4642682,18.9462969 C72.0893116,18.9462969 73.4066707,20.263656 73.4066707,21.8886994 L73.4066707,47.8131584 Z M83.1430166,47.8133543 C83.1430166,49.4383977 81.8256575,50.7557568 80.2006141,50.7557568 C78.5755707,50.7557568 77.2582116,49.4383977 77.2582116,47.8133543 L77.2582116,35.0270144 C77.2582116,33.4019711 78.5755707,32.084612 80.2006141,32.084612 C81.8256575,32.084612 83.1430166,33.4019711 83.1430166,35.0270144 L83.1430166,47.8133543 Z" id="Shape"></path>
                    <path d="M23.8443075,87.0438104 L13.0390802,76.1717687 C12.4746574,75.6040846 11.5477143,75.598864 10.9770004,76.1601676 L9.83065787,77.2876085 C9.26898736,77.8400178 9.26367931,78.7338883 9.81905879,79.2926783 L20.6242861,90.1647199 C21.1885123,90.7325975 22.1154554,90.737818 22.6863659,90.1763211 L23.8327085,89.0488802 C24.394379,88.4964709 24.399687,87.6026003 23.8443075,87.0438104 Z" id="Path"></path>
                    <path d="M16.4238022,94.4351554 L5.7517482,83.5963441 C5.19447599,83.0302022 4.27895736,83.0249976 3.71508333,83.5847783 L2.6510235,84.6411138 C-0.8836745,88.1499595 -0.8836745,93.8593755 2.6510235,97.3684139 C4.41817833,99.1229332 6.73949862,100 9.06120726,100 C11.3825276,100 13.704042,99.1227404 15.4711968,97.3682212 L16.4123461,96.433904 C16.9668999,95.8833759 16.9721425,94.9920447 16.4238022,94.4351554 Z" id="Path"></path>
                    <path d="M41.417149,69.0259578 C37.2351969,66.3143451 33.6605145,62.7503607 30.9458692,58.5828408 C30.4434772,57.811331 29.3573834,57.6919912 28.7037631,58.3418172 L17.2559809,69.7265667 C16.6948652,70.2845929 16.6895624,71.1875523 17.2443933,71.752024 L28.038948,82.7346118 C28.602617,83.3082635 29.5286445,83.3135371 30.098991,82.746331 L41.6557754,71.2531795 C42.3080209,70.6045253 42.1899843,69.5269508 41.417149,69.0259578 Z" id="Path"></path>
                </g>
            </g>
        </g>
    </g>
</svg>