<?xml version="1.0" encoding="UTF-8"?>
<svg width="75px" height="100px" viewBox="0 0 75 100" version="1.1" xmlns="http://www.w3.org/2000/svg" xmlns:xlink="http://www.w3.org/1999/xlink">
    <title>icn_audit</title>
    <g id="Symbols" stroke="none" stroke-width="1" fill="none" fill-rule="evenodd">
        <g id="What-we-offer" transform="translate(-112.000000, -204.000000)" fill="#427FE0" fill-rule="nonzero">
            <g id="Group" transform="translate(0.000000, 164.000000)">
                <g id="icn_audit" transform="translate(112.000000, 40.000000)">
                    <path d="M26.5171875,25.1041016 L48.4832031,25.1041016 C51.1935547,25.1041016 53.3984375,22.8992187 53.3984375,20.1888672 L53.3984375,9.41464844 L49.4917969,9.41464844 C48.1734375,4.01738281 43.2966797,-2.77555756e-15 37.5,-2.77555756e-15 C31.7027344,-2.77555756e-15 26.8261719,4.01738281 25.5076172,9.41464844 L21.6015625,9.41464844 L21.6015625,20.1888672 C21.6015625,22.8992187 23.8066406,25.1041016 26.5171875,25.1041016 Z" id="Path"></path>
                    <path d="M64.1730469,9.41464844 L59.2578125,9.41464844 L59.2578125,20.1888672 C59.2578125,26.1300781 54.4242187,30.9634766 48.4832031,30.9634766 L26.5171875,30.9634766 C20.5757812,30.9634766 15.7421875,26.1300781 15.7421875,20.1888672 L15.7421875,9.41464844 L10.8269531,9.41464844 C4.88574219,9.41464844 0.05234375,14.2478516 0.05234375,20.1888672 L0.05234375,89.2251953 C0.05234375,95.1664063 4.88574219,100 10.8269531,100 L64.1730469,100 C70.1140625,100 74.9476562,95.1664063 74.9476562,89.2251953 L74.9476562,20.1888672 C74.9476562,14.2478516 70.1140625,9.41464844 64.1730469,9.41464844 Z M27.0199219,83.2431641 L20.7439453,89.5191406 C20.1720703,90.0912109 19.4220703,90.3773437 18.6726562,90.3773437 C17.9228516,90.3773437 17.1734375,90.0914062 16.6011719,89.5195312 L13.4625,86.3820312 C12.3183594,85.2382812 12.3179688,83.3832031 13.4617188,82.2388672 C14.6056641,81.0947266 16.4607422,81.0943359 17.6048828,82.2380859 L18.6722656,83.3048828 L22.8767578,79.1001953 C24.0207031,77.95625 25.8757813,77.95625 27.0199219,79.1001953 C28.1640625,80.2441406 28.1640625,82.0992187 27.0199219,83.2431641 L27.0199219,83.2431641 Z M27.0201172,64.4150391 L20.7441406,70.6912109 C20.1720703,71.2632813 19.4220703,71.5492188 18.6726562,71.5492188 C17.9230469,71.5492188 17.1734375,71.2632813 16.6011719,70.6914063 L13.4625,67.5541016 C12.3183594,66.4101562 12.3179688,64.5552734 13.4617188,63.4109375 C14.6056641,62.2667969 16.4605469,62.2662109 17.6048828,63.4101562 L18.6720703,64.4767578 L22.8767578,60.271875 C24.0208984,59.1279297 25.8757812,59.1275391 27.0199219,60.271875 C28.1640625,61.4158203 28.1640625,63.2707031 27.0201172,64.4150391 Z M27.0201172,45.5875 L20.7441406,51.8636719 C20.1720703,52.4357422 19.4220703,52.7216797 18.6726563,52.7216797 C17.9226563,52.7216797 17.1730469,52.4357422 16.6011719,51.8638672 L13.4625,48.7257813 C12.3181641,47.5818359 12.3181641,45.7267578 13.4621094,44.5826172 C14.6060547,43.4382813 16.4609375,43.4382813 17.6052734,44.5822266 L18.6722656,45.6492188 L22.8767578,41.4445313 C24.0208984,40.3005859 25.8757813,40.3001953 27.0199219,41.4445313 C28.1640625,42.5884766 28.1640625,44.4433594 27.0201172,45.5875 L27.0201172,45.5875 Z M59.4662109,90.3771484 L37.5007813,90.3771484 C35.8826172,90.3771484 34.5710938,89.0654297 34.5710938,87.4474609 C34.5710938,85.8294922 35.8826172,84.5177734 37.5007813,84.5177734 L59.4660156,84.5177734 C61.0837891,84.5177734 62.3957031,85.8294922 62.3957031,87.4474609 C62.3957031,89.065625 61.0839844,90.3771484 59.4662109,90.3771484 Z M59.4662109,71.5492188 L37.5007813,71.5492188 C35.8826172,71.5492188 34.5710938,70.2375 34.5710938,68.6195313 C34.5710938,67.0015625 35.8826172,65.6898438 37.5007813,65.6898438 L59.4660156,65.6898438 C61.0837891,65.6898438 62.3957031,67.0015625 62.3957031,68.6195313 C62.3957031,70.2375 61.0839844,71.5492188 59.4662109,71.5492188 Z M59.4662109,52.7216797 L37.5007813,52.7216797 C35.8826172,52.7216797 34.5710938,51.4099609 34.5710938,49.7919922 C34.5710938,48.1740234 35.8826172,46.8623047 37.5007813,46.8623047 L59.4660156,46.8623047 C61.0837891,46.8623047 62.3957031,48.1740234 62.3957031,49.7919922 C62.3957031,51.4101563 61.0839844,52.7216797 59.4662109,52.7216797 Z" id="Shape"></path>
                </g>
            </g>
        </g>
    </g>
</svg>