<?xml version="1.0" encoding="UTF-8"?>
<svg width="83px" height="81px" viewBox="0 0 83 81" version="1.1" xmlns="http://www.w3.org/2000/svg" xmlns:xlink="http://www.w3.org/1999/xlink">
    <title>icn_revenue</title>
    <g id="Symbols" stroke="none" stroke-width="1" fill="none" fill-rule="evenodd">
        <g id="img_achievements" transform="translate(-253.000000, -40.000000)" fill="#427FE0" fill-rule="nonzero">
            <g id="Group-9" transform="translate(156.000000, 40.199829)">
                <g id="icn_revenue" transform="translate(97.000000, 0.000000)">
                    <path d="M12.8425882,52.0256458 C15.1470588,54.1079336 17.7604118,55.7590406 20.5611765,57 L35.2903529,47.6577491 C38.3375294,45.7156827 42.4189412,46.1749077 44.9698235,48.7654982 L49.9223529,53.7678967 C57.3459412,48.2396679 62,39.395203 62,29.797048 C62,13.3666052 48.7666471,0 32.5,0 C16.2333529,0 3,13.3666052 3,29.797048 C3,38.2769373 6.58511765,46.3782288 12.8425882,52.0256458 Z M33.8188235,32.4261993 L31.1811765,32.4261993 C27.1240588,32.4261993 23.8235294,29.0924354 23.8235294,24.9944649 C23.8235294,21.3101476 26.4542353,18.2778598 29.8970588,17.6608856 L29.8970588,14.898524 C29.8970588,13.4472325 31.0631765,12.2693727 32.5,12.2693727 C33.9368235,12.2693727 35.1029412,13.4472325 35.1029412,14.898524 L35.1029412,17.5276753 L38.5735294,17.5276753 C40.0103529,17.5276753 41.1764706,18.7055351 41.1764706,20.1568266 C41.1764706,21.6081181 40.0103529,22.7859779 38.5735294,22.7859779 L31.1811765,22.7859779 C29.9942353,22.7859779 29.0294118,23.7605166 29.0294118,24.9594096 C29.0294118,26.1933579 29.9942353,27.1678967 31.1811765,27.1678967 L33.8188235,27.1678967 C37.8759412,27.1678967 41.1764706,30.5016605 41.1764706,34.599631 C41.1764706,38.2839483 38.5457647,41.3162362 35.1029412,41.9332103 L35.1029412,44.6920664 C35.1029412,46.1433579 33.9368235,47.3212177 32.5,47.3212177 C31.0631765,47.3212177 29.8970588,46.1433579 29.8970588,44.6920664 L29.8970588,42.0664207 L26.4264706,42.0664207 C24.9896471,42.0664207 23.8235294,40.8885609 23.8235294,39.4372694 C23.8235294,37.9859779 24.9896471,36.8081181 26.4264706,36.8081181 L33.8188235,36.8081181 C35.0057647,36.8081181 35.9705882,35.8335793 35.9705882,34.6346863 C35.9705882,33.400738 35.0057647,32.4261993 33.8188235,32.4261993 L33.8188235,32.4261993 Z" id="Shape"></path>
                    <path d="M79.5416142,38 L65.7080712,38 C64.3108833,38 63.0451141,38.854 62.5125227,40.1595 C61.9764729,41.4685 62.2738941,42.9735 63.2629924,43.9745 L67.7346852,48.5 L53.603721,62.801 L42.2152566,51.2755 C41.0843645,50.124 39.3067542,49.9245 37.951067,50.775 L1.6380164,73.525 C0.0125750883,74.5435 -0.485432462,76.6995 0.517499411,78.341 C1.17113432,79.412 2.30202647,80 3.4605857,80 C4.08309514,80 4.70906296,79.832 5.27623823,79.475 L39.2583368,58.1845 L51.1551838,70.2245 C52.5074127,71.593 54.6931125,71.593 56.0453413,70.2245 L72.6248427,53.449 L77.0965355,57.9745 C77.7570872,58.643 78.6424339,59 79.5416142,59 C79.987746,59 80.4373361,58.9125 80.866176,58.734 C82.1596123,58.1915 83,56.914 83,55.5 L83,41.5 C83,39.568 81.4541016,38 79.5416142,38 L79.5416142,38 Z" id="Path"></path>
                </g>
            </g>
        </g>
    </g>
</svg>