<?xml version="1.0" encoding="UTF-8"?>
<svg width="107px" height="100px" viewBox="0 0 107 100" version="1.1" xmlns="http://www.w3.org/2000/svg" xmlns:xlink="http://www.w3.org/1999/xlink">
    <title>icn_reputation</title>
    <g id="Symbols" stroke="none" stroke-width="1" fill="none" fill-rule="evenodd">
        <g id="services" transform="translate(-1061.000000, -255.000000)" fill="#427FE0" fill-rule="nonzero">
            <g id="icn_reputation" transform="translate(1061.000000, 255.000000)">
                <path d="M37.8947368,18.9473684 C27.4471579,18.9473684 18.9473684,27.4471579 18.9473684,37.8947368 C18.9473684,48.3423158 27.4471579,56.8421053 37.8947368,56.8421053 C48.3423158,56.8421053 56.8421053,48.3423158 56.8421053,37.8947368 C56.8421053,27.4471579 48.3423158,18.9473684 37.8947368,18.9473684 Z M27.3684211,31.5789474 C27.3684211,29.8349474 28.7823158,28.4210526 30.5263158,28.4210526 C32.2703158,28.4210526 33.6842105,29.8349474 33.6842105,31.5789474 C33.6842105,33.3229474 32.2703158,34.7368421 30.5263158,34.7368421 C28.7823158,34.7368421 27.3684211,33.3229474 27.3684211,31.5789474 Z M46.1195789,45.1368421 C41.2934737,49.2778947 34.4835789,49.2711579 29.6646316,45.1324211 C28.3414737,43.996 28.1901053,42.0023158 29.3265263,40.6793684 C30.4629474,39.3564211 32.4568421,39.2052632 33.7795789,40.3412632 C36.2370526,42.4517895 39.5509474,42.4509474 42.0067368,40.3437895 C43.3301053,39.208 45.3237895,39.3604211 46.4597895,40.684 C47.5955789,42.0073684 47.4431579,44.0010526 46.1195789,45.1368421 L46.1195789,45.1368421 Z M45.0526316,34.7368421 C43.3086316,34.7368421 41.8947368,33.3229474 41.8947368,31.5789474 C41.8947368,29.8349474 43.3086316,28.4210526 45.0526316,28.4210526 C46.7966316,28.4210526 48.2105263,29.8349474 48.2105263,31.5789474 C48.2105263,33.3229474 46.7966316,34.7368421 45.0526316,34.7368421 Z" id="Shape"></path>
                <path d="M56.8439959,22.9548667 C58.1205734,24.6925255 59.1818322,26.5983515 59.9853388,28.6338285 C62.0519786,27.8411901 64.2610438,29.3721651 64.2610438,31.5802292 C64.2610438,33.1772925 63.0762656,34.4940068 61.5398351,34.704479 C61.8414914,37.092497 61.7963269,39.475674 61.4461451,41.7531941 C65.8667965,38.7148169 72.0440286,38.691665 76.6692853,42.6681169 C77.9899769,43.8036145 78.1418554,45.7967866 77.0087536,47.1200255 C75.8752318,48.4432644 73.8858966,48.5952254 72.5654151,47.4601486 C70.1124619,45.3512169 66.8060063,45.3545844 64.3562042,47.4626743 C63.0609307,48.5771247 61.1213815,48.4561032 59.9723146,47.1865347 C59.1700685,49.2108566 58.1128009,51.107001 56.8421053,52.8362408 C69.1068709,62.4367212 87.3684211,53.7267488 87.3684211,37.8943962 C87.3684211,22.0820384 69.13544,13.3436523 56.8439959,22.9548667 L56.8439959,22.9548667 Z M75.6046654,34.7373127 C73.8644698,34.7373127 72.4536594,33.3237812 72.4536594,31.5802292 C72.4536594,29.8366773 73.8644698,28.4231458 75.6046654,28.4231458 C77.3448609,28.4231458 78.7556714,29.8366773 78.7556714,31.5802292 C78.7556714,33.3237812 77.3448609,34.7373127 75.6046654,34.7373127 Z" id="Shape"></path>
                <path d="M96.9716283,0 L9.34416118,0 C4.19179071,0 0,4.19686632 0,9.35547553 L0,65.4883287 C0,70.6469379 4.19179071,74.8438042 9.34416118,74.8438042 L62.917352,74.8438042 L62.917352,75.7608487 C62.917352,83.5899265 58.3297841,90.7686947 51.2296752,94.0497639 C49.7987726,94.7110921 49.0865399,96.3381132 49.5709827,97.8395631 C50.0529338,99.3333207 51.5752015,100.24496 53.1304852,99.9420503 L60.038935,98.5946539 C72.5729852,96.1499642 82.6030078,86.9539476 86.2054934,74.8438042 L96.9716283,74.8438042 C102.123999,74.8438042 106.315789,70.6469379 106.315789,65.4883287 L106.315789,9.35547553 C106.315789,4.19686632 102.123999,0 96.9716283,0 Z M53.1485506,56.8972995 C37.0176213,70.1359211 12.4588816,58.6713055 12.4588816,37.5977851 C12.4588816,16.5469256 37.0047471,5.0475909 53.1495888,18.2991022 C69.2605839,5.06838084 93.8569079,16.5003561 93.8569079,37.5977851 C93.8569079,58.6896007 69.2479174,70.1311394 53.1485506,56.8972995 Z" id="Shape"></path>
            </g>
        </g>
    </g>
</svg>