<?xml version="1.0" encoding="UTF-8"?>
<svg width="100px" height="100px" viewBox="0 0 100 100" version="1.1" xmlns="http://www.w3.org/2000/svg" xmlns:xlink="http://www.w3.org/1999/xlink">
    <title>icn_seo</title>
    <g id="Symbols" stroke="none" stroke-width="1" fill="none" fill-rule="evenodd">
        <g id="services" transform="translate(-101.000000, -255.000000)" fill="#427FE0" fill-rule="nonzero">
            <g id="Group" transform="translate(0.000000, 215.000000)">
                <g id="icn_seo" transform="translate(101.000000, 40.000000)">
                    <path d="M66.4717021,56.8440426 L56.8419149,66.4717021 C55.9597872,67.3559574 55.9597872,68.7965957 56.8440426,69.6808511 C57.7282979,70.5695745 59.1689362,70.5651064 60.0531915,69.6808511 L69.6808511,60.0531915 C70.5651064,59.1665957 70.5651064,57.7282979 69.6808511,56.8417021 C68.7987234,55.9595745 67.353617,55.9574468 66.4717021,56.8440426 Z" id="Path"></path>
                    <path d="M95.9840426,47.3846809 L53.253617,4.65425532 C50.2525532,1.65340426 46.2631915,0 42.0191489,0 L9.07808511,0 C4.0712766,0 0,4.0712766 0,9.07808511 L0,42.0191489 C0,46.2634043 1.65340426,50.252766 4.65425532,53.253617 L47.3846809,95.9840426 C49.8470213,98.446383 53.2557447,99.8580851 56.7374468,99.8580851 C60.2191489,99.8580851 63.6278723,98.446383 66.0902128,95.9840426 L95.9838298,66.0904255 C98.4461702,63.6280851 99.8578723,60.2193617 99.8578723,56.7376596 C99.8578723,53.2559574 98.446383,49.8470213 95.9840426,47.3846809 Z M18.1559574,27.2340426 C13.1493617,27.2340426 9.07787234,23.162766 9.07787234,18.1559574 C9.07787234,13.1491489 13.1491489,9.07787234 18.1559574,9.07787234 C23.162766,9.07787234 27.2340426,13.1493617 27.2340426,18.1559574 C27.2340426,23.1625532 23.162766,27.2340426 18.1559574,27.2340426 Z M27.9565957,47.2140426 C26.6710638,45.9285106 25.9619149,44.2176596 25.9619149,42.4002128 C25.9619149,40.5806383 26.6710638,38.8695745 27.9565957,37.5842553 C28.8431915,36.7021277 30.2814894,36.7 31.1680851,37.586383 C32.0523404,38.4751064 32.0523404,39.9112766 31.1659574,40.7978723 C30.7359574,41.2234043 30.5010638,41.7929787 30.5010638,42.4002128 C30.5010638,43.0053191 30.7382979,43.5748936 31.1659574,44.0048936 C32.0280851,44.8604255 33.5197872,44.8648936 34.3729787,44.0048936 L35.9797872,42.4002128 C36.8640426,41.513617 36.8640426,40.0753191 35.9797872,39.1887234 C33.3268085,36.5357447 33.3268085,32.2185106 35.9776596,29.5610638 L37.5868085,27.9542553 C40.1534043,25.39 44.643617,25.3834043 47.2144681,27.956383 C48.5,29.2419149 49.2091489,30.952766 49.2091489,32.7702128 C49.2091489,34.5897872 48.5,36.3008511 47.2144681,37.5861702 C46.3278723,38.4682979 44.8895745,38.4704255 44.0029787,37.5840426 C43.1187234,36.6953191 43.1187234,35.2591489 44.0051064,34.3725532 C44.4351064,33.9448936 44.67,33.3774468 44.67,32.7702128 C44.67,32.1651064 44.432766,31.5955319 44.0051064,31.1655319 C43.1429787,30.3078723 41.6470213,30.3078723 40.7980851,31.1655319 L39.1889362,32.7723404 C38.3046809,33.6544681 38.3046809,35.0951064 39.1889362,35.9793617 C41.8440426,38.6344681 41.8440426,42.9540426 39.1889362,45.6091489 L37.5842553,47.2138298 C36.3010638,48.4993617 34.59,49.2085107 32.7704255,49.2085107 C30.9529787,49.2085107 29.2419149,48.4995745 27.9565957,47.2140426 Z M47.2140426,60.0531915 C48.1006383,60.9397872 48.1006383,62.3759574 47.2140426,63.2623404 C46.7708511,63.7055319 46.19,63.927234 45.6093617,63.927234 C45.0287234,63.927234 44.4480851,63.7055319 44.0046809,63.2623404 L37.5861702,56.8417021 C36.6995745,55.9551064 36.6995745,54.5189362 37.5861702,53.6325532 L53.6323404,37.586383 C54.5189362,36.6997872 55.9551064,36.6997872 56.8414894,37.586383 L63.2621277,44.0048936 C64.1487234,44.8914894 64.1487234,46.3276596 63.2621277,47.2140426 C62.3755319,48.1006383 60.9393617,48.1006383 60.0529787,47.2140426 L55.2370213,42.4002128 L50.4231915,47.2140426 L53.6323404,50.4231915 C54.5189362,51.3097872 54.5189362,52.7459574 53.6323404,53.6323404 C53.1891489,54.0755319 52.6082979,54.297234 52.0276596,54.297234 C51.4470213,54.297234 50.866383,54.0755319 50.4229787,53.6323404 L47.2138298,50.4231915 L42.4,55.2370213 L47.2140426,60.0531915 Z M72.89,63.2623404 L63.2623404,72.89 C61.9346809,74.2176596 60.1904255,74.8825532 58.446383,74.8825532 C56.7042553,74.8825532 54.9602128,74.2176596 53.6325532,72.89 C50.9819149,70.2348936 50.9819149,65.9174468 53.6304255,63.2623404 L63.2625532,53.6325532 C63.2625532,53.6325532 63.2625532,53.6325532 63.2625532,53.6304255 C65.9176596,50.9797872 70.2351064,50.9797872 72.8902128,53.6304255 C75.5453191,56.2876596 75.5453191,60.607234 72.89,63.2623404 Z" id="Shape"></path>
                </g>
            </g>
        </g>
    </g>
</svg>