<?xml version="1.0" encoding="UTF-8"?>
<svg width="153px" height="100px" viewBox="0 0 153 100" version="1.1" xmlns="http://www.w3.org/2000/svg" xmlns:xlink="http://www.w3.org/1999/xlink">
    <title>icn_social_ads</title>
    <g id="Symbols" stroke="none" stroke-width="1" fill="none" fill-rule="evenodd">
        <g id="services" transform="translate(-715.000000, -255.000000)" fill="#427FE0" fill-rule="nonzero">
            <g id="icn_social_ads" transform="translate(715.000000, 255.000000)">
                <circle id="Oval" cx="76.4277259" cy="23.364486" r="23.2607477"></circle>
                <circle id="Oval" cx="122.949221" cy="43.3021807" r="16.6146417"></circle>
                <circle id="Oval" cx="30.3785047" cy="43.3021807" r="16.6146417"></circle>
                <path d="M76.4277259,53.271028 C52.6087227,53.271028 33.2292835,72.6504673 33.2292835,96.4694704 C33.2292835,98.3037383 34.7180685,99.7925234 36.5523364,99.7925234 L116.303115,99.7925234 C118.137383,99.7925234 119.626168,98.3037383 119.626168,96.4694704 C119.626168,72.6504673 100.246729,53.271028 76.4277259,53.271028 Z" id="Path"></path>
                <path d="M36.1071651,67.2806854 C34.0735202,66.8485981 32.0065421,66.5629283 29.9065421,66.5629283 C13.4180685,66.5629283 0,79.9809969 0,96.4694704 C0,98.3037383 1.48878505,99.7925234 3.32305296,99.7925234 L27.1950156,99.7925234 C26.8227414,98.7492212 26.5834891,97.6392523 26.5834891,96.4694704 C26.5834891,85.5635514 30.1457944,75.4950156 36.1071651,67.2806854 Z" id="Path"></path>
                <path d="M122.949221,66.5629283 C120.849221,66.5629283 118.782243,66.8485981 116.748598,67.2806854 C122.709969,75.4950156 126.272274,85.5635514 126.272274,96.4694704 C126.272274,97.6392523 126.033022,98.7489097 125.660748,99.7925234 L149.53271,99.7925234 C151.366978,99.7925234 152.855763,98.3037383 152.855763,96.4694704 C152.855763,79.9809969 139.437695,66.5629283 122.949221,66.5629283 Z" id="Path"></path>
            </g>
        </g>
    </g>
</svg>