<?xml version="1.0" encoding="UTF-8"?>
<svg width="110px" height="100px" viewBox="0 0 110 100" version="1.1" xmlns="http://www.w3.org/2000/svg" xmlns:xlink="http://www.w3.org/1999/xlink">
    <title>icn_google_ads</title>
    <g id="Symbols" stroke="none" stroke-width="1" fill="none" fill-rule="evenodd">
        <g id="services" transform="translate(-416.000000, -255.000000)" fill="#427FE0" fill-rule="nonzero">
            <g id="Group" transform="translate(0.000000, 215.000000)">
                <g id="icn_google_ads" transform="translate(416.000000, 40.000000)">
                    <path d="M39.3343374,74.548407 C36.4688465,63.8540562 25.4947055,57.5158748 14.7977214,60.3822434 C-2.40070992,64.9905532 -5.38689462,88.2192869 9.96601839,97.0836999 C25.283601,105.927046 43.9676636,91.8401017 39.3343374,74.548407 L39.3343374,74.548407 Z" id="Path"></path>
                    <path d="M106.488163,69.7167039 L72.1239972,10.195995 C69.4485442,5.56157151 65.1281441,2.24666071 59.9591567,0.861534475 C42.7616032,-3.74743358 28.5596704,14.876721 37.4240833,30.2298535 L71.7884683,89.7505624 C77.3230483,99.3369439 89.5633773,102.621791 99.1554642,97.0836999 C108.722096,91.560092 112.011551,79.2833355 106.488163,69.7167039 Z" id="Path"></path>
                    <path d="M46.4254288,74.0019931 L50.5064163,66.9337238 L31.3426505,33.741166 C29.8056695,31.0790991 28.7753831,28.2616663 28.2188749,25.4007838 L11.7255149,53.9681346 C26.8945344,49.1250205 43.0023325,58.291168 46.4254288,74.0019931 Z" id="Path"></path>
                </g>
            </g>
        </g>
    </g>
</svg>