<?xml version="1.0" encoding="UTF-8"?>
<svg width="101px" height="101px" viewBox="0 0 101 101" version="1.1" xmlns="http://www.w3.org/2000/svg" xmlns:xlink="http://www.w3.org/1999/xlink">
    <title>icn_growth</title>
    <g id="Symbols" stroke="none" stroke-width="1" fill="none" fill-rule="evenodd">
        <g id="What-we-offer" transform="translate(-740.000000, -204.000000)" fill="#427FE0" fill-rule="nonzero">
            <g id="Group" transform="translate(0.000000, 164.000000)">
                <g id="icn_growth" transform="translate(740.000000, 40.000000)">
                    <path d="M50.3435357,36.9975146 C51.309293,37.3663549 52.2567292,36.4636549 51.9365658,35.5031982 C49.7393934,28.9102327 41.7840901,26.4507767 34.3887292,32.3000405 C30.4986759,35.3772038 29.0368715,36.0310369 29,36.0475388 C31.5645129,38.5442357 34.4943052,46.9223082 40.8881824,47.8488691 C47.9315469,49.0923116 54.1653424,42.3448077 49.0651724,39.2571635 C45.7110149,37.2267575 41.7618756,36.0473158 37.5287575,36.0473158 C41.9666153,35.0732562 46.3969156,35.4909333 50.3435357,36.9975146 Z" id="Path"></path>
                    <path d="M80.6965424,32.0147264 C68.1343816,21.8813251 60.1229673,37.8618319 65.1028042,36.2777466 C68.6396445,35.1526834 72.5061903,34.907618 76.3846802,35.775754 C69.8133328,35.775754 63.7558121,38.766448 59.7170893,43.6344106 C60.048823,35.9843394 60.5504801,31.1958273 61.1321409,27.6337615 C64.4889165,27.5191738 68.9628144,24.8272583 71.4197173,20.1168538 C75.6554069,12.5889796 73.6911467,4.87042444 73.0590047,0 C69.7493298,3.20062218 55.2916443,-0.549662827 49.5602232,9.20371909 C47.0285,13.5121715 47.7643089,18.7550059 50.4276438,22.5916793 C51.2707252,23.8062641 53.2865935,23.2234782 53.3440609,21.7495045 C53.5942134,15.3375176 56.8076584,10.4930544 62.7982465,7.80986726 C60.1101216,11.2687594 58.3450819,15.1412414 57.4332649,19.1437536 C56.0159597,25.3787115 54.5355529,29.4687312 53.9919783,49.3414147 C53.9367645,51.3567704 55.5807845,53.0250061 57.6108506,53 C59.08044,52.9813643 60.3393154,52.055263 60.9045247,50.7079624 C61.7640576,48.6588122 63.1631085,46.5380447 65.4397212,44.5949777 C67.603202,46.9697628 70.8952985,48.2333606 74.3016539,47.6199137 C80.5667336,46.6940362 83.4905877,38.2673649 86,35.7755302 C85.9632659,35.7594163 84.5245512,35.1032227 80.6965424,32.0147264 Z" id="Path"></path>
                    <path d="M99.6806379,57.2436858 C95.7543015,54.5719499 91.4809802,56.4758132 89.5184879,57.6122557 L64.8906744,75.6904825 L50.4705246,75.6936462 L46.8654871,72.0780008 L60.1085922,72.0780008 C64.0914827,72.0780008 68.5520406,69.476092 68.5520406,64.8451283 C68.5520406,59.9285285 64.0914827,57.6122557 60.1085922,57.6122557 L55.1458075,57.6122557 C51.4592061,57.6122557 47.150961,57.9419574 44.1132663,56.3110753 C41.2272085,54.8381518 37.9038146,54 34.3562324,54 C28.3991333,54 23.0675082,56.3818064 19.414028,60.13801 L0,79.3061278 L21.6302248,101 L28.8402998,90.1530639 L62.9115089,90.1530639 C66.5451613,90.1530639 70.0526375,88.8161791 72.7690332,86.3959564 L99.9271323,62.1993798 C101.436967,60.8543597 101.351798,58.3810323 99.6806379,57.2436858 Z" id="Path"></path>
                </g>
            </g>
        </g>
    </g>
</svg>