<?xml version="1.0" encoding="UTF-8"?>
<svg width="117px" height="100px" viewBox="0 0 117 100" version="1.1" xmlns="http://www.w3.org/2000/svg" xmlns:xlink="http://www.w3.org/1999/xlink">
    <title>Icn_roi</title>
    <g id="Symbols" stroke="none" stroke-width="1" fill="none" fill-rule="evenodd">
        <g id="What-we-offer" transform="translate(-1052.000000, -204.000000)" fill="#427FE0" fill-rule="nonzero">
            <g id="Group" transform="translate(0.000000, 164.000000)">
                <g id="Icn_roi" transform="translate(1052.000000, 40.000000)">
                    <path d="M15.2922636,61 L2.70773639,61 C1.21203438,61 0,62.185136 0,63.6476443 L0,68.7664234 L0,91.2335766 L0,96.3523557 C0,97.814864 1.21203438,99 2.70773639,99 L15.2922636,99 C16.7879656,99 18,97.814864 18,96.3523557 L18,91.2335766 L18,68.7664234 L18,63.6476443 C18,62.185136 16.7879656,61 15.2922636,61 Z" id="Path"></path>
                    <path d="M40.2922636,46 L27.7077364,46 C26.2120344,46 25,47.191866 25,48.6626794 L25,68.5947368 L25,76.4052632 L25,96.3373206 C25,97.808134 26.2120344,99 27.7077364,99 L40.2922636,99 C41.7879656,99 43,97.808134 43,96.3373206 L43,76.4052632 L43,68.5947368 L43,48.6626794 C43,47.191866 41.7879656,46 40.2922636,46 Z" id="Path"></path>
                    <path d="M67.4009779,53.3827255 L67.4009779,31.6133077 L75.9836089,31.6133077 C77.5626093,31.6133077 78.5303837,29.9078695 77.689948,28.5786308 L60.219073,0.94049904 C59.4295728,-0.31349968 57.5704272,-0.31349968 56.780927,0.94049904 L39.310052,28.5786308 C38.4696163,29.9078695 39.4373907,31.6133077 41.0163911,31.6133077 L49.5990221,31.6133077 L49.5990221,95.3666027 C49.5990221,96.8212412 50.7960063,98 52.2731357,98 L64.7013966,98 C66.178526,98 67.3755101,96.8212412 67.3755101,95.3916827 C62.3838315,89.7737684 59.3531696,82.4253359 59.3531696,74.3746641 C59.3531696,66.3490723 62.3838315,59.0006398 67.4009779,53.3827255 Z" id="Path"></path>
                    <path d="M92,50 C78.1861862,50 67,61.1861862 67,75 C67,88.8138138 78.1861862,100 92,100 C105.813814,100 117,88.8138138 117,75 C117,61.1861862 105.813814,50 92,50 Z M99.1821822,84.8848849 C98.0810811,86.2112112 96.6796797,87.1121121 95.003003,87.5625626 C94.2772773,87.7627628 93.951952,88.1381381 94.002002,88.8888889 C94.027027,89.6146146 94.002002,90.3653654 94.002002,91.1161161 C94.002002,91.7667668 93.6766767,92.1171171 93.026026,92.1421421 C92.2252252,92.1671672 91.4244244,92.1671672 90.6486486,92.1421421 C89.9479479,92.1171171 89.6226226,91.7417417 89.6226226,91.0660661 C89.6226226,90.5155155 89.6226226,89.98999 89.5975976,89.4394394 C89.5975976,88.2382382 89.5475475,88.1881882 88.3963964,88.013013 C86.9199199,87.7877878 85.4934935,87.4374374 84.1421421,86.7867868 C83.0910911,86.2862863 82.990991,86.011011 83.2912913,84.9099099 C83.5165165,84.0840841 83.7417417,83.2582583 83.991992,82.4574575 C84.2922923,81.5065065 84.5425425,81.4064064 85.4184184,81.8568569 C86.8948949,82.6326326 88.4714715,83.0580581 90.1231231,83.2582583 C91.1991992,83.3833834 92.2252252,83.2832833 93.2012012,82.8578579 C95.028028,82.0570571 95.3283283,79.9299299 93.7767768,78.6536537 C93.2512513,78.2282282 92.6506507,77.9029029 92.025025,77.6276276 C90.4234234,76.9269269 88.7217217,76.3763764 87.2202202,75.4754755 C84.7427427,73.998999 83.1911912,71.971972 83.3663664,68.968969 C83.5665666,65.5655656 85.4934935,63.4384384 88.6216216,62.3123123 C89.8978979,61.8368368 89.9229229,61.8618619 89.9229229,60.5105105 C89.9229229,60.0600601 89.9229229,59.6096096 89.9229229,59.1591592 C89.9479479,58.1331331 90.1231231,57.982983 91.1241241,57.9329329 C91.4244244,57.9329329 91.7497497,57.9329329 92.0500501,57.9329329 C94.2022022,57.9329329 94.2022022,57.9329329 94.2022022,60.0850851 C94.2022022,61.6116116 94.2022022,61.6116116 95.7287287,61.8368368 C96.8798799,62.012012 98.006006,62.3623624 99.0570571,62.8378378 C99.6576577,63.0880881 99.8828829,63.5135135 99.6826827,64.1391391 C99.4074074,65.0650651 99.1571572,65.990991 98.8568569,66.9169169 C98.5815816,67.7927928 98.3063063,67.9179179 97.4554555,67.5175175 C95.7787788,66.7167167 94.027027,66.3663664 92.1751752,66.4664665 C91.6996997,66.4914915 91.2242242,66.5665666 90.7737738,66.7667668 C89.1721722,67.4674675 88.9219219,69.2442442 90.2732733,70.3203203 C90.973974,70.8708709 91.7497497,71.2712713 92.5755756,71.6216216 C94.002002,72.1971972 95.4284284,72.7727728 96.7547548,73.5235235 C101.034034,75.8258258 102.185185,81.2062062 99.1821822,84.8848849 Z" id="Shape"></path>
                </g>
            </g>
        </g>
    </g>
</svg>