<?xml version="1.0" encoding="UTF-8"?>
<svg width="73px" height="81px" viewBox="0 0 73 81" version="1.1" xmlns="http://www.w3.org/2000/svg" xmlns:xlink="http://www.w3.org/1999/xlink">
    <title>icn_awards</title>
    <g id="Symbols" stroke="none" stroke-width="1" fill="none" fill-rule="evenodd">
        <g id="img_achievements" transform="translate(-1087.000000, -40.000000)" fill="#427FE0" fill-rule="nonzero">
            <g id="Group-9" transform="translate(156.000000, 40.199829)">
                <g id="icn_awards" transform="translate(931.000000, 0.000000)">
                    <path d="M14.8405125,26.7262941 C18.2667375,33.8491985 26.16075,39.7093015 29.7,42.0794118 L29.7,48.4277868 L15.639525,57 L50.467725,57 L36.3,48.3628235 L36.3,42.0794118 C39.83925,39.7084632 47.7332625,33.8483603 51.1594875,26.7254559 C62.8414875,25.4773235 66,11.1141618 66,3.35294118 C66,1.5011629 64.5225397,0 62.7,0 L3.3,0 C1.47746033,0 0,1.5011629 0,3.35294118 C0,11.1141618 3.1585125,25.4773235 14.8405125,26.7262941 Z M52.8,19.3598824 L52.8,6.70588235 L59.145075,6.70588235 C58.6447125,10.7214485 57.16425,17.1708309 52.8,19.3598824 Z M13.2,6.70588235 L13.2,19.3598824 C8.8353375,17.1708309 7.354875,10.7197721 6.854925,6.70588235 L13.2,6.70588235 Z" id="Shape"></path>
                    <path d="M71.3,57.4 C68.48461,57.3971341 66.2030451,55.2497788 66.2,52.6 C66.2,51.7163444 65.4388841,51 64.5,51 C63.5611159,51 62.8,51.7163444 62.8,52.6 C62.7969549,55.2497788 60.51539,57.3971341 57.7,57.4 C56.7611159,57.4 56,58.1163444 56,59 C56,59.8836556 56.7611159,60.6 57.7,60.6 C60.51539,60.6028659 62.7969549,62.7502212 62.8,65.4 C62.8,66.2836556 63.5611159,67 64.5,67 C65.4388841,67 66.2,66.2836556 66.2,65.4 C66.2030451,62.7502212 68.48461,60.6028659 71.3,60.6 C72.2388841,60.6 73,59.8836556 73,59 C73,58.1163444 72.2388841,57.4 71.3,57.4 Z" id="Path"></path>
                    <path d="M64.5,27 C63.5611159,27 62.8,27.7163444 62.8,28.6 C62.7969549,31.2497788 60.51539,33.3971341 57.7,33.4 C56.7611159,33.4 56,34.1163444 56,35 C56,35.8836556 56.7611159,36.6 57.7,36.6 C60.51539,36.6028659 62.7969549,38.7502212 62.8,41.4 C62.8,42.2836556 63.5611159,43 64.5,43 C65.4388841,43 66.2,42.2836556 66.2,41.4 C66.2030451,38.7502212 68.48461,36.6028659 71.3,36.6 C72.2388841,36.6 73,35.8836556 73,35 C73,34.1163444 72.2388841,33.4 71.3,33.4 C68.48461,33.3971341 66.2030451,31.2497788 66.2,28.6 C66.2,27.7163444 65.4388841,27 64.5,27 Z" id="Path"></path>
                    <path d="M17,45 C17,44.1163444 16.2388841,43.4 15.3,43.4 C12.48461,43.3971341 10.2030451,41.2497788 10.2,38.6 C10.2,37.7163444 9.43888407,37 8.5,37 C7.56111593,37 6.8,37.7163444 6.8,38.6 C6.79695494,41.2497788 4.51538995,43.3971341 1.7,43.4 C0.761115925,43.4 0,44.1163444 0,45 C0,45.8836556 0.761115925,46.6 1.7,46.6 C4.51538995,46.6028659 6.79695494,48.7502212 6.8,51.4 C6.8,52.2836556 7.56111593,53 8.5,53 C9.43888407,53 10.2,52.2836556 10.2,51.4 C10.2030451,48.7502212 12.48461,46.6028659 15.3,46.6 C16.2388841,46.6 17,45.8836556 17,45 Z" id="Path"></path>
                    <path d="M13,76.6666667 C13,78.5076158 14.4923842,80 16.3333333,80 L49.6666667,80 C51.5076158,80 53,78.5076158 53,76.6666667 L53,60 L13,60 L13,76.6666667 Z" id="Path"></path>
                </g>
            </g>
        </g>
    </g>
</svg>