<svg width="36" height="26" viewBox="0 0 36 26" fill="none" xmlns="http://www.w3.org/2000/svg">
<path d="M31.5798 1.63123C28.8409 0.885254 17.8853 0.885254 17.8853 0.885254C17.8853 0.885254 6.93007 0.885254 4.19121 1.60295C2.72085 2.00443 1.50982 3.20994 1.1065 4.70232C0.385742 7.4285 0.385742 13.0822 0.385742 13.0822C0.385742 13.0822 0.385742 18.7644 1.1065 21.4621C1.51025 22.9545 2.69201 24.1311 4.19143 24.533C6.95891 25.2792 17.8857 25.2792 17.8857 25.2792C17.8857 25.2792 28.8409 25.2792 31.5798 24.5615C33.0792 24.1598 34.2612 22.9832 34.6649 21.4908C35.3857 18.7644 35.3857 13.1109 35.3857 13.1109C35.3857 13.1109 35.4143 7.4285 34.6645 4.70232C34.2612 3.20973 33.079 2.03314 31.5798 1.63123ZM14.3972 18.3053V7.85911L23.5074 13.0822L14.3972 18.3053Z" fill="#FF0000"/>
</svg>
