<svg width="36" height="36" viewBox="0 0 36 36" fill="none" xmlns="http://www.w3.org/2000/svg">
<path d="M18.015 0.885254C10.8999 0.886946 4.48639 5.15237 1.76531 11.6925C-0.955779 18.2326 0.551439 25.7593 5.58411 30.7629C10.6168 35.7664 18.1838 37.2613 24.7564 34.5505C31.3291 31.8396 35.6129 25.4569 35.6104 18.3787C35.6069 8.7147 27.7295 0.882946 18.015 0.885254ZM26.0807 26.1246C25.9293 26.3719 25.6853 26.5492 25.4024 26.6174C25.1195 26.6856 24.821 26.6391 24.5726 26.4882C20.4431 23.9807 15.2446 23.4082 9.12178 24.7998C8.73436 24.9026 8.32146 24.7867 8.04506 24.4978C7.76867 24.2088 7.67287 23.7929 7.79524 23.413C7.91761 23.0332 8.23863 22.7501 8.63237 22.6748C15.3328 21.1494 21.0817 21.8055 25.7173 24.6243C25.9667 24.7742 26.1458 25.0167 26.2151 25.2981C26.2845 25.5796 26.2384 25.877 26.087 26.1246H26.0807ZM28.2337 21.3605C28.043 21.6696 27.7366 21.8906 27.3821 21.9748C27.0275 22.0591 26.6538 21.9997 26.3433 21.8097C21.6152 18.9178 14.4086 18.082 8.81511 19.7704C8.3461 19.9118 7.83686 19.7936 7.4792 19.4603C7.12154 19.127 6.96982 18.6291 7.08117 18.1543C7.19252 17.6795 7.55004 17.2999 8.01905 17.1585C14.4065 15.2319 22.3482 16.1659 27.7779 19.4841C28.4261 19.8755 28.6329 20.7153 28.24 21.3605H28.2337ZM28.4185 16.3979C22.7473 13.0546 13.3962 12.7412 7.98334 14.3752C7.11331 14.6372 6.19454 14.1479 5.93121 13.2824C5.66788 12.4169 6.15971 11.5029 7.02974 11.2409C13.2428 9.36036 23.5707 9.72602 30.0988 13.5812C30.6042 13.8798 30.9111 14.4239 30.904 15.0087C30.8966 15.5934 30.5764 16.1298 30.0637 16.416C29.5511 16.7021 28.9239 16.6944 28.4185 16.3958V16.3979Z" fill="#1ED760"/>
</svg>
