<?xml version="1.0" encoding="UTF-8"?>
<svg width="198px" height="80px" viewBox="0 0 198 80" version="1.1" xmlns="http://www.w3.org/2000/svg" xmlns:xlink="http://www.w3.org/1999/xlink">
    <title>img_google-reviews</title>
    <g id="Symbols" stroke="none" stroke-width="1" fill="none" fill-rule="evenodd">
        <g id="img_achievements" transform="translate(-611.000000, -42.000000)" fill-rule="nonzero">
            <g id="Group-9" transform="translate(156.000000, 40.199829)">
                <g id="img_google-reviews" transform="translate(455.000000, 1.800171)">
                    <path d="M37.3877551,23.3061224 C33.9183673,23.3061224 30.4489796,23.3469388 26.9795918,23.2653061 C25.9591837,23.2653061 25.7142857,23.5918367 25.755102,24.5306122 C25.8367347,25.9591837 25.8367347,27.3877551 25.755102,28.8163265 C25.6734694,29.877551 26.0408163,30.122449 27.0612245,30.122449 C31.7959184,30.0816327 36.4897959,30.122449 41.2244898,30.122449 C41.755102,30.122449 42.244898,30.0408163 42.122449,30.8979592 C41.4693878,35.0612245 39.5918367,38.4489796 36.0408163,40.8163265 C32,43.5510204 27.5102041,44.2040816 22.8163265,43.5102041 C18.7755102,42.8979592 15.3061224,41.1020408 12.5714286,38.0816327 C7.83673469,32.7755102 6.6122449,26.6122449 8.57142857,19.7959184 C10.4897959,13.2653061 16.9795918,7.95918367 23.7959184,7.3877551 C28.8979592,6.97959184 33.5102041,8.16326531 37.4285714,11.5510204 C37.9183673,11.9591837 38.2857143,12.0816327 38.7755102,11.5102041 C39.8367347,10.3265306 40.9795918,9.18367347 42.122449,8.08163265 C42.7346939,7.51020408 42.7346939,7.10204082 42.0816327,6.53061224 C40.3673469,5.02040816 38.5306122,3.75510204 36.5306122,2.81632653 C26.8979592,-1.71428571 15.2653061,0.244897959 7.79591837,7.79591837 C2.20408163,13.4285714 -0.489795918,20.244898 0.448979592,28.2040816 C1.59183673,37.5102041 6.65306122,44.0816327 14.9795918,48.2040816 C19.1020408,50.244898 23.5102041,50.8571429 28.0408163,50.5306122 C34.6122449,50.0816327 40.122449,47.4693878 44.3265306,42.3673469 C48.6938776,37.1020408 49.6734694,30.8979592 49.0612245,24.2857143 C48.9795918,23.5510204 48.6938776,23.2244898 47.877551,23.2653061 C44.4081633,23.3469388 40.8979592,23.3061224 37.3877551,23.3061224 Z M153.183673,35.5102041 C153.183673,30.4489796 153.183673,25.3877551 153.183673,20.3673469 C153.183673,19.5918367 152.938776,19.3469388 152.204082,19.3877551 C150.857143,19.4285714 149.469388,19.3877551 148.122449,19.3877551 C146.530612,19.3877551 146.44898,19.1428571 146.489796,20.9387755 C146.489796,21.1836735 146.612245,21.5102041 146.285714,21.6734694 C146,21.7959184 145.877551,21.5102041 145.714286,21.3469388 C142.857143,18.7346939 139.387755,17.9591837 135.673469,18.4897959 C127.755102,19.6734694 121.673469,27.3061224 122.285714,35.3061224 C122.816327,42.2857143 126.367347,47.3469388 133.020408,49.755102 C137.591837,51.4285714 142.040816,50.9795918 145.795918,47.4285714 C145.959184,47.3061224 146.040816,47.0612245 146.285714,47.1428571 C146.571429,47.2653061 146.489796,47.5510204 146.489796,47.755102 C146.489796,48.7346939 146.530612,49.7142857 146.44898,50.6938776 C146.081633,56.4489796 141.591837,59.8367347 135.918367,58.5714286 C133.265306,58 131.428571,56.2857143 130.122449,53.9591837 C129.755102,53.2653061 129.428571,53.1020408 128.693878,53.4285714 C127.265306,54.0816327 125.836735,54.6530612 124.367347,55.2244898 C123.714286,55.4693878 123.55102,55.755102 123.877551,56.4489796 C124.489796,57.6326531 125.265306,58.6938776 126.081633,59.7142857 C131.591837,66.4897959 141.673469,66.3265306 147.142857,62.3673469 C150.938776,59.6326531 152.612245,55.6734694 153.020408,51.1836735 C153.469388,46.0408163 153.142857,40.7755102 153.183673,35.5102041 Z M119.265306,34.5306122 C119.469388,25.4285714 112.326531,18.3265306 103.142857,18.3265306 C93.5510204,18.3265306 86.8571429,25.6734694 86.8977735,34.4489796 C86.9387755,43.5510204 93.9591837,50.612419 103.020408,50.612419 C112.122449,50.6530612 119.469388,43.5102041 119.265306,34.5306122 Z M84,34.5714286 C84,25.3061224 77.0204082,18.2857143 67.6734694,18.3263535 C58.6122449,18.3673469 51.5918367,25.1428571 51.5102041,34.4489796 C51.4285714,43.5510204 58.6938776,50.6938776 67.8367347,50.6938776 C76.8979592,50.6530612 84,43.5918367 84,34.5714286 Z M168.244898,34.3673469 C168.285714,35.8367347 168.44898,37.1836735 168.77551,38.5714286 C170.530612,45.8367347 176.44898,50.5714286 183.918367,50.6530612 C189.428571,50.6938776 193.836735,48.4489796 197.183673,44.122449 C197.55102,43.6734694 197.55102,43.3877551 197.061224,43.0612245 C195.591837,42.0816327 194.122449,41.1020408 192.653061,40.122449 C192.285714,39.877551 191.959184,39.877551 191.714286,40.2857143 C191.510204,40.5714286 191.306122,40.8163265 191.102041,41.1020408 C187.510204,45.4285714 179.918367,45.5918367 176.734694,40.1632653 C176.367347,39.5918367 176.408163,39.3469388 177.061224,39.0612245 C179.959184,37.877551 182.816327,36.6938776 185.714286,35.5102041 C189.428571,34 193.102041,32.4081633 196.816327,30.9387755 C197.795918,30.5306122 197.877551,30.122449 197.510204,29.1836735 C196.77551,27.5102041 196,25.8367347 194.938776,24.3265306 C190.163265,17.5918367 180.77551,16.244898 174.326531,21.3061224 C170.040816,24.6938776 168.408163,29.2244898 168.244898,34.3673469 Z M165.142857,25.9183673 C165.142857,18.3673469 165.142857,10.7755102 165.142857,3.2244898 C165.142857,2.32653061 164.897959,2.04081633 164,2.08163265 C162.408163,2.16326531 160.816327,2.08163265 159.22449,2.08163265 C157.918367,2.08163265 157.918367,2.08163265 157.918367,3.46938776 C157.918367,18.244898 157.918367,33.0612245 157.918367,47.8367347 C157.918367,48.1632653 157.959184,48.5306122 157.959184,48.8571429 C157.959184,49.5102041 158.204082,49.755102 158.897959,49.7142857 C160.612245,49.6734694 162.285714,49.6734694 164,49.7142857 C164.938776,49.755102 165.22449,49.4693878 165.22449,48.5306122 C165.142857,40.9795918 165.142857,33.4693878 165.142857,25.9183673 Z M10.4897959,70.8979592 C10.4897959,72.7755102 10.4489796,74.6938776 10.4897959,76.5714286 C10.5306122,79.755102 9.87755102,79.1428571 13.2653061,79.2244898 C13.877551,79.2244898 14.122449,79.0204082 14.0816327,78.4081633 C14.0408163,77.0204082 14.0816327,75.6326531 14.0816327,74.244898 C14.0816327,73.877551 14.0816327,73.5102041 14.6122449,73.4285714 C16.0816327,73.1836735 16.6122449,73.4285714 17.3877551,74.7346939 C17.755102,75.3469388 18.0816327,75.9591837 18.4489796,76.6122449 C19.9183673,79.2653061 19.9183673,79.2653061 23.0204082,79.2244898 C23.0612245,79.2244898 23.1020408,79.2244898 23.1020408,79.2244898 C23.9591837,79.2653061 23.9183673,78.9795918 23.5510204,78.3673469 C22.6530612,76.8979592 21.7959184,75.3877551 20.8979592,73.9183673 C20.5306122,73.3061224 20.4489796,72.9387755 21.2653061,72.6122449 C22.4897959,72.122449 23.2653061,71.1428571 23.6734694,69.877551 C24.9795918,66.1632653 22.4897959,62.6938776 18.4489796,62.6122449 C16.122449,62.5714286 13.8367347,62.6122449 11.5102041,62.5714286 C10.6938776,62.5714286 10.4897959,62.8571429 10.4897959,63.6326531 C10.5306122,66.0816327 10.4897959,68.4897959 10.4897959,70.8979592 Z M84.6938776,74.6938776 C84.244898,74.3265306 84.2040816,74 84.122449,73.6734694 C83.5510204,72 82.9387755,70.3265306 82.4897959,68.6530612 C82.2040816,67.5918367 81.7142857,67.2244898 80.6122449,67.2244898 C79.4693878,67.2244898 78.8979592,67.5102041 78.6122449,68.6530612 C78.1632653,70.3265306 77.5918367,71.9591837 77.0204082,73.5918367 C76.9387755,73.877551 76.9387755,74.4081633 76.5306122,74.3673469 C76.122449,74.3265306 76.1632653,73.8367347 76.0816327,73.5510204 C75.6734694,72.2040816 75.3469388,70.8571429 74.9387755,69.5510204 C74.2857143,67.2653061 74.2857143,67.2653061 71.9183673,67.2653061 C71.1020408,67.2653061 70.9387755,67.4693878 71.1836735,68.2857143 C72.0816327,71.1428571 72.9387755,74 73.8367347,76.8571429 C74.7755102,79.9183673 74.122449,79.1836735 77.1428571,79.3061224 C77.877551,79.3469388 78.1632653,79.0204082 78.3265306,78.4081633 C78.8979592,76.5714286 79.4693878,74.7346939 80.0816327,72.8979592 C80.2040816,72.5714286 80.1632653,72.1632653 80.6938776,71.9183673 C81.3877551,74.0816327 82.122449,76.2040816 82.7346939,78.3265306 C82.9387755,79.1020408 83.3061224,79.3469388 84.0816327,79.3061224 C86.4489796,79.2653061 86.4897959,79.3061224 87.1836735,77.1020408 C88.122449,74.1632653 89.0204082,71.2244898 89.9183673,68.244898 C90,67.9591837 90.3265306,67.4285714 89.8367347,67.3877551 C88.8979592,67.2653061 87.9183673,67.2653061 87.0204082,67.3877551 C86.4897959,67.4693878 86.5714286,68.244898 86.4489796,68.6938776 C86.2040816,69.3877551 86.0408163,70.122449 85.8367347,70.8571429 C85.4693878,72.0816327 85.1020408,73.3061224 84.6938776,74.6938776 Z M65.5918367,74.2857143 C65.5918367,74.2857143 65.5918367,74.2857143 65.5918367,74.2857143 C66.8163265,74.2857143 68.0408163,74.2857143 69.2653061,74.2857143 C69.755102,74.2857143 70.122449,74.1632653 70.122449,73.5510204 C70.0816327,71.1020408 69.3469388,68.9387755 67.1428571,67.6734694 C64.8571429,66.3673469 62.4897959,66.5306122 60.3265306,68.0408163 C57.5102041,70 56.8979592,74.6122449 59.0612245,77.3061224 C61.1428571,79.9183673 66.4489796,80.4897959 68.7755102,78.3673469 C69.1020408,78.0816327 69.1428571,77.8367347 68.8979592,77.4693878 C68.6938776,77.1836735 68.5306122,76.8979592 68.3265306,76.6122449 C68,76.0408163 67.6734694,75.8367347 67.0204082,76.2857143 C66.5714286,76.6122449 65.9591837,76.7755102 65.4285714,76.9387755 C63.8367347,77.3469388 62.1632653,76.6530612 61.5102041,75.3469388 C61.1020408,74.5714286 61.2653061,74.2857143 62.122449,74.2857143 C63.3061224,74.244898 64.4489796,74.2857143 65.5918367,74.2857143 Z M32.9795918,74.2857143 C34.1632653,74.2857143 35.3469388,74.2857143 36.5306122,74.2857143 C36.9795918,74.2857143 37.4285714,74.244898 37.3877551,73.6734694 C37.3061224,71.5102041 36.8571429,69.4693878 35.0204082,68.0816327 C32.6122449,66.244898 29.0612245,66.4897959 26.8979592,68.6122449 C24.6530612,70.8163265 24.3265306,74.6938776 26.2040816,77.1836735 C28.0408163,79.6326531 31.5918367,80.4081633 34.7755102,79.0204082 C36.5306122,78.2857143 36.6122449,77.9183673 35.4693878,76.4489796 C35.1836735,76.0816327 34.8979592,75.9183673 34.4489796,76.2040816 C33.8367347,76.6122449 33.1836735,76.8571429 32.4897959,76.9795918 C30.8571429,77.2653061 29.2244898,76.4489796 28.6938776,75.1428571 C28.4489796,74.5714286 28.5306122,74.244898 29.2653061,74.244898 C30.5306122,74.2857143 31.755102,74.2857143 32.9795918,74.2857143 Z M96,79.6734694 C97.0204082,79.7142857 97.9591837,79.5510204 98.8979592,79.1836735 C100.530612,78.5306122 101.387755,77.1836735 101.306122,75.4285714 C101.22449,73.755102 100.204082,72.7755102 98.6938776,72.244898 C97.5510204,71.877551 96.3265306,71.6326531 95.1428571,71.3061224 C94.6938776,71.1836735 94.1632653,71.0204082 94.2040816,70.4081633 C94.244898,69.8367347 94.6938776,69.5510204 95.2653061,69.4285714 C96.4897959,69.2244898 97.6734694,69.3469388 98.6530612,70.0816327 C99.5510204,70.7755102 99.877551,70.3673469 100.285714,69.5918367 C100.897959,68.4081633 100.897959,68.2857143 99.6734694,67.6734694 C98.122449,66.8571429 96.4489796,66.6122449 94.7346939,66.8979592 C93.4285714,67.1020408 92.244898,67.5918367 91.5102041,68.7755102 C90.3673469,70.6122449 90.9795918,72.7755102 92.9387755,73.755102 C94.2857143,74.4081633 95.8367347,74.5306122 97.2653061,74.9387755 C97.755102,75.0612245 98.1632653,75.3061224 98.1632653,75.9183673 C98.1632653,76.4897959 97.755102,76.7755102 97.3061224,76.9387755 C96.9795918,77.0612245 96.6530612,77.1020408 96.3265306,77.1020408 C94.9795918,77.1428571 93.7959184,76.6530612 92.6938776,75.9591837 C92.122449,75.5918367 91.7959184,75.5918367 91.5102041,76.244898 C91.3877551,76.4897959 91.2653061,76.7346939 91.0612245,76.9387755 C90.5306122,77.6326531 90.7755102,78.0816327 91.4285714,78.4897959 C92.8571429,79.3061224 94.4081633,79.6326531 96,79.6734694 Z M133.673469,79.1428571 C133.755102,77.7959184 133.510204,76.6530612 133.346939,75.5102041 C133.265306,74.8979592 133.346939,74.4897959 133.795918,74.0408163 C134.489796,73.3061224 135.183673,72.5306122 135.877551,71.8367347 C136.285714,71.4285714 136.163265,71.1836735 135.632653,71.1020408 C134.857143,70.9387755 134.040816,70.7346939 133.22449,70.6530612 C132.285714,70.5306122 131.591837,70.2040816 131.22449,69.2244898 C130.938776,68.4489796 130.408163,67.755102 130.040816,66.9795918 C129.755102,66.4489796 129.55102,66.4081633 129.22449,66.9795918 C128.77551,67.8367347 128.285714,68.6122449 127.877551,69.4693878 C127.55102,70.122449 127.102041,70.4489796 126.408163,70.5306122 C125.469388,70.6938776 124.530612,70.8571429 123.591837,71.0612245 C123.020408,71.1836735 122.897959,71.4285714 123.346939,71.877551 C123.959184,72.4897959 124.530612,73.1020408 125.142857,73.7142857 C125.795918,74.3673469 126.040816,75.0612245 125.836735,76 C125.673469,76.7755102 125.591837,77.5918367 125.510204,78.4081633 C125.428571,79.0204082 125.55102,79.2653061 126.204082,78.8979592 C127.061224,78.4489796 127.918367,78.122449 128.77551,77.6734694 C129.346939,77.3877551 129.795918,77.3469388 130.408163,77.6326531 C131.387755,78.1632653 132.44898,78.6122449 133.673469,79.1428571 Z M181.55102,79.1836735 C181.55102,78.7755102 181.632653,78.4897959 181.55102,78.244898 C180.77551,75.6326531 181.469388,73.5102041 183.673469,71.877551 C184.285714,71.4285714 183.918367,71.1836735 183.387755,71.0612245 C182.571429,70.8979592 181.714286,70.6938776 180.897959,70.6122449 C180.081633,70.5306122 179.55102,70.122449 179.183673,69.3877551 C178.77551,68.6122449 178.326531,67.8367347 177.918367,67.0612245 C177.632653,66.4897959 177.428571,66.3673469 177.102041,67.0204082 C176.653061,67.877551 176.163265,68.7346939 175.714286,69.5918367 C175.469388,70.0816327 175.102041,70.3673469 174.571429,70.4489796 C173.591837,70.6122449 172.653061,70.8163265 171.673469,71.0204082 C171.020408,71.1428571 170.816327,71.3469388 171.346939,71.9183673 C172,72.5714286 172.612245,73.2244898 173.265306,73.877551 C173.755102,74.3673469 173.918367,74.8979592 173.755102,75.6326531 C173.55102,76.5306122 173.55102,77.4285714 173.428571,78.3673469 C173.346939,78.9795918 173.469388,79.2244898 174.122449,78.8571429 C174.938776,78.4489796 175.795918,78.122449 176.612245,77.6734694 C177.306122,77.3061224 177.836735,77.3469388 178.530612,77.7142857 C179.428571,78.244898 180.408163,78.6530612 181.55102,79.1836735 Z M157.428571,78.4081633 C157.306122,79.1020408 157.510204,79.1428571 157.959184,78.9387755 C158.897959,78.4897959 159.836735,78.122449 160.734694,77.6326531 C161.346939,77.3061224 161.877551,77.3469388 162.44898,77.6734694 C163.142857,78.0408163 163.836735,78.3673469 164.571429,78.6938776 C164.857143,78.8163265 165.22449,79.1020408 165.510204,78.8979592 C165.836735,78.6530612 165.632653,78.2857143 165.591837,77.9591837 C165.510204,77.1020408 165.387755,76.2040816 165.265306,75.3469388 C165.183673,74.7755102 165.387755,74.3265306 165.795918,73.877551 C166.489796,73.2244898 167.102041,72.4897959 167.755102,71.7959184 C168.244898,71.2653061 168.040816,71.0612245 167.428571,70.9795918 C166.612245,70.8571429 165.755102,70.6530612 164.938776,70.5306122 C164.122449,70.4081633 163.591837,70.0816327 163.22449,69.3061224 C162.857143,68.4897959 162.326531,67.7142857 161.877551,66.8979592 C161.591837,66.3673469 161.387755,66.4489796 161.142857,66.9387755 C160.653061,67.8367347 160.163265,68.7346939 159.714286,69.6326531 C159.469388,70.0816327 159.183673,70.3673469 158.653061,70.4489796 C157.714286,70.6122449 156.77551,70.8163265 155.877551,70.9795918 C155.632653,71.0204082 155.265306,71.0204082 155.142857,71.2653061 C154.979592,71.5918367 155.346939,71.7142857 155.510204,71.9183673 C156.122449,72.6122449 156.734694,73.3061224 157.387755,73.9183673 C157.795918,74.3265306 158,74.7346939 157.877551,75.3469388 C157.591837,76.4489796 157.55102,77.5102041 157.428571,78.4081633 Z M117.714286,79.1836735 C117.795918,77.9183673 117.510204,76.7755102 117.387755,75.6734694 C117.306122,74.8979592 117.428571,74.3265306 118.040816,73.755102 C118.693878,73.1836735 119.22449,72.5306122 119.795918,71.9183673 C120.244898,71.4285714 120.244898,71.1428571 119.510204,71.0204082 C118.653061,70.8979592 117.795918,70.6938776 116.897959,70.5714286 C116.163265,70.4489796 115.673469,70.122449 115.346939,69.4285714 C114.938776,68.6122449 114.489796,67.8367347 114.040816,67.0204082 C113.714286,66.4081633 113.469388,66.4489796 113.183673,67.0612245 C112.734694,67.9183673 112.244898,68.7755102 111.795918,69.6734694 C111.55102,70.1632653 111.183673,70.4081633 110.612245,70.4897959 C109.632653,70.6530612 108.693878,70.8571429 107.714286,71.0612245 C107.102041,71.1836735 106.979592,71.4285714 107.428571,71.9183673 C108.081633,72.6122449 108.693878,73.3061224 109.387755,74 C109.836735,74.4489796 110,74.8571429 109.918367,75.5510204 C109.755102,76.6938776 109.510204,77.877551 109.591837,79.1836735 C110.693878,78.6938776 111.755102,78.244898 112.77551,77.7142857 C113.428571,77.3877551 113.959184,77.4285714 114.571429,77.755102 C115.591837,78.2040816 116.612245,78.6530612 117.714286,79.1836735 Z M141.510204,78.4489796 C141.428571,79.3061224 141.959184,79.0612245 142.285714,78.8163265 C144.489796,77.1836735 146.653061,77.3061224 148.897959,78.8163265 C149.510204,79.2653061 149.795918,78.9795918 149.632653,78.2040816 C149.510204,77.6326531 149.510204,76.9795918 149.387755,76.4081633 C149.183673,75.2244898 149.306122,74.1632653 150.408163,73.3469388 C150.897959,72.9795918 151.265306,72.4081633 151.714286,71.9183673 C152.204082,71.4285714 152.163265,71.1428571 151.428571,71.0204082 C150.571429,70.8979592 149.714286,70.6938776 148.816327,70.5306122 C148.081633,70.4081633 147.591837,70.122449 147.265306,69.3877551 C146.897959,68.5714286 146.408163,67.7959184 145.959184,66.9795918 C145.673469,66.4081633 145.428571,66.4489796 145.142857,66.9795918 C144.693878,67.7959184 144.244898,68.5714286 143.836735,69.3877551 C143.469388,70.0816327 142.938776,70.4489796 142.163265,70.5306122 C141.306122,70.6530612 140.44898,70.8571429 139.55102,70.9795918 C139.020408,71.0612245 138.77551,71.2244898 139.265306,71.755102 C139.959184,72.4489796 140.571429,73.2244898 141.265306,73.9183673 C141.673469,74.3265306 141.836735,74.7346939 141.755102,75.2653061 C141.714286,76.3673469 141.591837,77.3877551 141.510204,78.4489796 Z M44.4897959,79.2653061 C46.5306122,79.2244898 46.0816327,79.5102041 46.8571429,77.6326531 C47.9591837,75.0204082 49.0204082,72.3673469 50.0816327,69.7142857 C51.1020408,67.1428571 51.1020408,67.1836735 48.3265306,67.2244898 C47.7142857,67.2244898 47.4285714,67.5102041 47.2244898,68.0408163 C46.4489796,70.122449 45.6734694,72.244898 44.8571429,74.3265306 C44.7755102,74.5714286 44.8163265,74.9387755 44.4489796,74.9387755 C44.1632653,74.8979592 44.122449,74.5306122 44.0408163,74.2857143 C43.4285714,72.6938776 42.8163265,71.0612245 42.2040816,69.4693878 C41.3469388,67.2244898 41.3469388,67.2653061 38.9387755,67.2653061 C38.122449,67.2653061 37.9183673,67.4285714 38.244898,68.244898 C39.6734694,71.6734694 41.0612245,75.1428571 42.4489796,78.6122449 C42.6530612,79.1428571 42.9795918,79.3469388 43.5102041,79.3061224 C43.7959184,79.2244898 44.1632653,79.2653061 44.4897959,79.2653061 Z M55.6326531,73.3469388 C55.6326531,72.0408163 55.6326531,70.7755102 55.6326531,69.4693878 C55.6326531,67.1836735 55.6326531,67.1836735 53.3061224,67.2244898 C52.6122449,67.2244898 52.3673469,67.4285714 52.3673469,68.1632653 C52.4081633,71.0612245 52.3673469,74 52.4081633,76.8979592 C52.4489796,79.6734694 51.8367347,79.1836735 54.8163265,79.2653061 C55.4285714,79.2653061 55.6326531,79.0612245 55.6326531,78.4489796 C55.6326531,76.7346939 55.6326531,75.0612245 55.6326531,73.3469388 Z M53.877551,62.0408163 C52.8163265,62.0816327 51.9183673,62.9795918 51.9183673,64 C51.9591837,65.0612245 52.8571429,65.9183673 53.877551,65.9183673 C54.8979592,65.9183673 55.7959184,65.0204082 55.7959184,63.9591837 C55.8367347,62.9387755 54.8979592,62.0408163 53.877551,62.0408163 Z" id="Shape" fill="#F5F5F5"></path>
                    <path d="M37.3877551,23.3061224 C40.8979592,23.3061224 44.3673469,23.3469388 47.877551,23.3061224 C48.6938776,23.3061224 48.9795918,23.5918367 49.0612245,24.3265306 C49.7142857,30.9387755 48.6938776,37.1428571 44.3265306,42.4081633 C40.122449,47.5102041 34.6122449,50.0816327 28.0408163,50.5714286 C23.4693878,50.8979592 19.0612245,50.2857143 14.9795918,48.244898 C6.65306122,44.122449 1.63265306,37.5510204 0.489795918,28.244898 C-0.489795918,20.2857143 2.24489796,13.4693878 7.83673469,7.83673469 C15.3061224,0.285714286 26.9387755,-1.67346939 36.5714286,2.85714286 C38.6122449,3.79591837 40.4489796,5.10204082 42.122449,6.57142857 C42.7755102,7.14285714 42.7346939,7.55102041 42.1632653,8.12244898 C41.0204082,9.2244898 39.877551,10.3673469 38.8163265,11.5510204 C38.3265306,12.0816327 37.9591837,12 37.4693878,11.5918367 C33.5102041,8.16326531 28.9387755,6.93877551 23.7959184,7.3877551 C17.0204082,7.95918367 10.4897959,13.2653061 8.57142857,19.7959184 C6.6122449,26.6122449 7.79591837,32.7755102 12.5714286,38.0816327 C15.2653061,41.1020408 18.7755102,42.9387755 22.8163265,43.5102041 C27.5510204,44.2040816 32,43.5510204 36.0408163,40.8163265 C39.5918367,38.4081633 41.4693878,35.0204082 42.122449,30.8979592 C42.244898,30.0408163 41.755102,30.122449 41.2244898,30.122449 C36.4897959,30.122449 31.7959184,30.0816327 27.0612245,30.122449 C26.0408163,30.122449 25.6734694,29.877551 25.755102,28.8163265 C25.8367347,27.3877551 25.8367347,25.9591837 25.755102,24.5306122 C25.7142857,23.5918367 25.9591837,23.2244898 26.9795918,23.2653061 C30.4489796,23.3469388 33.9183673,23.3061224 37.3877551,23.3061224 Z" id="Path" fill="#427FE0"></path>
                    <path d="M153.183673,35.5102041 C153.142857,40.7755102 153.510204,46.0408163 153.061224,51.2653061 C152.653061,55.755102 151.020408,59.7142857 147.183673,62.4489796 C141.714286,66.3673469 131.632653,66.5714286 126.122449,59.7959184 C125.265306,58.7755102 124.530612,57.6734694 123.918367,56.5306122 C123.55102,55.877551 123.755102,55.5510204 124.408163,55.3061224 C125.877551,54.7346939 127.306122,54.1632653 128.734694,53.5102041 C129.469388,53.1836735 129.795918,53.3469388 130.163265,54.0408163 C131.428571,56.3673469 133.265306,58.0816327 135.959184,58.6530612 C141.632653,59.9183673 146.122449,56.5306122 146.489796,50.7755102 C146.571429,49.7959184 146.530612,48.8163265 146.530612,47.8367347 C146.530612,47.6326531 146.612245,47.3061224 146.326531,47.2244898 C146.081633,47.1428571 145.959184,47.3469388 145.836735,47.5102041 C142.081633,51.0612245 137.632653,51.5102041 133.061224,49.8367347 C126.408163,47.4285714 122.857143,42.3673469 122.326531,35.3877551 C121.714286,27.3877551 127.795918,19.7959184 135.714286,18.5714286 C139.428571,18 142.897959,18.7755102 145.755102,21.4285714 C145.918367,21.5918367 146.081633,21.8367347 146.326531,21.755102 C146.653061,21.6326531 146.530612,21.3061224 146.530612,21.0204082 C146.489796,19.2244898 146.571429,19.4693878 148.163265,19.4693878 C149.510204,19.4693878 150.897959,19.5102041 152.244898,19.4693878 C153.020408,19.4285714 153.22449,19.6734694 153.22449,20.4489796 C153.142857,25.3877551 153.183673,30.4489796 153.183673,35.5102041 Z M147.020408,34.4489796 C147.061224,32.9795918 146.734694,31.4693878 146.163265,30.0408163 C144.163265,24.9795918 138.040816,23.0612245 133.55102,26.122449 C129.142857,29.1020408 127.877551,35.7959184 130.897959,40.244898 C133.918367,44.6530612 139.510204,45.7142857 143.510204,42.5306122 C146.040816,40.4897959 147.020408,37.6734694 147.020408,34.4489796 Z" id="Shape" fill="#427FE0"></path>
                    <path d="M119.265306,34.5306122 C119.469388,43.5102041 112.122449,50.6530612 103.020408,50.6530612 C93.9591837,50.6122449 86.9387755,43.5510204 86.8977735,34.4897959 C86.8571429,25.7142857 93.5510204,18.3265306 103.142857,18.3671719 C112.326531,18.3265306 119.469388,25.4285714 119.265306,34.5306122 Z M103.102041,44.3265306 C104.897959,44.3265306 106.44898,43.877551 107.836735,42.9795918 C112.081633,40.2040816 113.632653,34.1632653 111.183673,29.6326531 C108.367347,24.4081633 102.122449,23.0204082 97.4693878,26.5714286 C94,29.2244898 92.8163265,34.9387755 94.8979592,39.0612245 C96.6122449,42.4081633 99.3469388,44.244898 103.102041,44.3265306 Z" id="Shape" fill="#427FE0"></path>
                    <path d="M84,34.5714286 C84,43.5918367 76.8979592,50.6530612 67.7959184,50.6940516 C58.6530612,50.7346939 51.4285714,43.5918367 51.4692157,34.4489796 C51.5510204,25.1428571 58.5714286,18.3673469 67.6326531,18.3265306 C77.0204082,18.244898 84,25.3061224 84,34.5714286 Z M76.8979592,34.5714286 C76.9795918,33.4693878 76.7755102,32.4081633 76.4897959,31.3469388 C74.7346939,25.0204082 67.1020408,22.5714286 62.0816327,26.7346939 C58.3265306,29.877551 57.4693878,35.877551 60.244898,40.122449 C62.8571429,44.122449 67.7142857,45.4693878 71.9183673,43.2244898 C75.3469388,41.4285714 76.7755102,38.3265306 76.8979592,34.5714286 Z" id="Shape" fill="#427FE0"></path>
                    <path d="M165.142857,25.9183673 C165.142857,33.4285714 165.142857,40.9795918 165.183673,48.4897959 C165.183673,49.4285714 164.897959,49.7142857 163.959184,49.6734694 C162.244898,49.5918367 160.571429,49.6326531 158.857143,49.6734694 C158.204082,49.6734694 157.918367,49.4285714 157.918367,48.8163265 C157.918367,48.4897959 157.877551,48.122449 157.877551,47.7959184 C157.877551,33.0204082 157.877551,18.2040816 157.877551,3.42857143 C157.877551,2.04081633 157.877551,2.04081633 159.183673,2.04081633 C160.77551,2.04081633 162.367347,2.08163265 163.959184,2.04081633 C164.857143,2 165.102041,2.32653061 165.102041,3.18367347 C165.142857,10.8163265 165.142857,18.3673469 165.142857,25.9183673 Z" id="Path" fill="#427FE0"></path>
                    <path d="M10.4897959,70.8979592 C10.4897959,68.4897959 10.5306122,66.0816327 10.4897959,63.6734694 C10.4897959,62.8979592 10.6938776,62.5714286 11.5102041,62.6122449 C13.8367347,62.6530612 16.122449,62.6122449 18.4489796,62.6530612 C22.4897959,62.7346939 24.9795918,66.2040816 23.6734694,69.9183673 C23.2244898,71.1428571 22.4489796,72.1632653 21.2653061,72.6530612 C20.4489796,72.9795918 20.5306122,73.3469388 20.8979592,73.9591837 C21.7959184,75.4285714 22.6530612,76.9387755 23.5510204,78.4081633 C23.9183673,79.0204082 23.9591837,79.3469388 23.1020408,79.2653061 C23.0612245,79.2653061 23.0204082,79.2653061 23.0204082,79.2653061 C19.9591837,79.3469388 19.9591837,79.3469388 18.4489796,76.6530612 C18.122449,76.0408163 17.755102,75.4285714 17.3877551,74.7755102 C16.6122449,73.4693878 16.0816327,73.2244898 14.6122449,73.4693878 C14.0816327,73.5510204 14.0816327,73.877551 14.0816327,74.2857143 C14.0816327,75.6734694 14.0408163,77.0612245 14.0816327,78.4489796 C14.0816327,79.0612245 13.877551,79.2653061 13.2653061,79.2653061 C9.87755102,79.1836735 10.5306122,79.7959184 10.4897959,76.6122449 C10.4489796,74.6938776 10.4897959,72.8163265 10.4897959,70.8979592 Z M16.3673469,70.244898 C16.9387755,70.244898 17.5102041,70.2857143 18.0816327,70.244898 C19.3469388,70.1632653 20.2040816,69.3061224 20.244898,68.0816327 C20.2857143,66.8571429 19.5102041,66 18.2040816,65.8367347 C17.5510204,65.755102 16.8979592,65.7959184 16.2857143,65.7959184 C14.122449,65.7959184 14.122449,65.7959184 14.122449,67.9183673 C14.0816327,70.244898 14.0816327,70.244898 16.3673469,70.244898 Z" id="Shape" fill="#427FE0"></path>
                    <path d="M84.6938776,74.6938776 C85.1020408,73.3469388 85.4693878,72.0816327 85.7959184,70.8163265 C86,70.0816327 86.1632653,69.3877551 86.4081633,68.6530612 C86.5714286,68.2040816 86.4489796,67.4285714 86.9795918,67.3469388 C87.9183673,67.1836735 88.8979592,67.2244898 89.7959184,67.3469388 C90.244898,67.3877551 89.9591837,67.9183673 89.877551,68.2040816 C88.9795918,71.1428571 88.0816327,74.122449 87.1428571,77.0612245 C86.4489796,79.2653061 86.4489796,79.2653061 84.0408163,79.2653061 C83.2653061,79.2653061 82.9387755,79.0612245 82.6938776,78.2857143 C82.0816327,76.1632653 81.3469388,74.0408163 80.6530612,71.877551 C80.122449,72.122449 80.1632653,72.5306122 80.0408163,72.8571429 C79.4285714,74.6938776 78.8571429,76.5306122 78.2857143,78.3673469 C78.0816327,79.0204082 77.7959184,79.3061224 77.1020408,79.2653061 C74.0816327,79.1428571 74.7346939,79.8367347 73.7959184,76.8163265 C72.8979592,73.9591837 72.0816327,71.1020408 71.1428571,68.244898 C70.8979592,67.4693878 71.0612245,67.2244898 71.877551,67.2244898 C74.244898,67.2244898 74.244898,67.1836735 74.8979592,69.5102041 C75.2653061,70.8571429 75.6326531,72.2040816 76.0408163,73.5102041 C76.122449,73.7959184 76.0816327,74.3265306 76.4897959,74.3265306 C76.8979592,74.3673469 76.8979592,73.8367347 76.9795918,73.5510204 C77.5510204,71.9183673 78.122449,70.2857143 78.5714286,68.6122449 C78.8571429,67.4693878 79.4285714,67.1836735 80.5714286,67.1836735 C81.7142857,67.1836735 82.1632653,67.5510204 82.4489796,68.6122449 C82.8979592,70.3265306 83.5102041,71.9591837 84.0816327,73.6326531 C84.2040816,73.9591837 84.2857143,74.3265306 84.6938776,74.6938776 Z" id="Path" fill="#427FE0"></path>
                    <path d="M65.5918367,74.2857143 C64.4489796,74.2857143 63.2653061,74.2857143 62.122449,74.2857143 C61.2653061,74.2857143 61.1428571,74.5714286 61.5102041,75.3469388 C62.2040816,76.6938776 63.8367347,77.3469388 65.4285714,76.9387755 C66,76.7755102 66.5714286,76.6122449 67.0204082,76.2857143 C67.6734694,75.8367347 68,76.0408163 68.3265306,76.6122449 C68.4897959,76.8979592 68.6938776,77.1836735 68.8979592,77.4693878 C69.1020408,77.7959184 69.0612245,78.0816327 68.7755102,78.3673469 C66.4081633,80.4897959 61.1428571,79.9591837 59.0612245,77.3061224 C56.8979592,74.5714286 57.4693878,70 60.3265306,68.0408163 C62.4897959,66.5306122 64.8571429,66.3673469 67.1428571,67.6734694 C69.3469388,68.9387755 70.0816327,71.1020408 70.122449,73.5510204 C70.122449,74.1632653 69.755102,74.2857143 69.2653061,74.2857143 C68.0408163,74.2857143 66.8163265,74.2857143 65.5918367,74.2857143 C65.5918367,74.2857143 65.5918367,74.2857143 65.5918367,74.2857143 Z M63.9591837,72.0816327 C64.6938776,72.0816327 65.4693878,72.0816327 66.2040816,72.0816327 C66.8163265,72.0816327 67.0204082,71.877551 66.8163265,71.2653061 C66.4897959,70.1632653 65.3877551,69.4693878 64.0408163,69.4693878 C62.7346939,69.4693878 61.5918367,70.2040816 61.2653061,71.3061224 C61.1020408,71.7959184 61.2244898,72.0816327 61.7959184,72.0816327 C62.5306122,72.0408163 63.2244898,72.0816327 63.9591837,72.0816327 Z" id="Shape" fill="#427FE0"></path>
                    <path d="M32.9795918,74.2857143 C31.755102,74.2857143 30.5306122,74.2857143 29.3061224,74.2857143 C28.5714286,74.2857143 28.5306122,74.5714286 28.7346939,75.1836735 C29.2653061,76.5306122 30.9387755,77.3469388 32.5306122,77.0204082 C33.2244898,76.8979592 33.9183673,76.6530612 34.4897959,76.244898 C34.9387755,75.9591837 35.2244898,76.0816327 35.5102041,76.4897959 C36.6530612,78 36.5306122,78.3265306 34.8163265,79.0612245 C31.5918367,80.4081633 28.0816327,79.6734694 26.244898,77.2244898 C24.3673469,74.7346939 24.6530612,70.8571429 26.9387755,68.6530612 C29.1020408,66.5306122 32.6122449,66.2857143 35.0612245,68.122449 C36.8979592,69.5510204 37.3469388,71.5510204 37.4285714,73.7142857 C37.4693878,74.2857143 36.9795918,74.3265306 36.5714286,74.3265306 C35.3469388,74.2857143 34.1632653,74.2857143 32.9795918,74.2857143 Z M31.2653061,72.0816327 C32,72.0816327 32.7346939,72.0816327 33.5102041,72.0816327 C34.244898,72.0816327 34.2857143,71.755102 34.0816327,71.1836735 C33.5918367,70 32.6938776,69.4693878 31.2653061,69.4693878 C29.9591837,69.4693878 29.0204082,70.1632653 28.5714286,71.2653061 C28.3265306,71.877551 28.5714286,72.0816327 29.1428571,72.0816327 C29.8367347,72.0816327 30.5714286,72.0816327 31.2653061,72.0816327 Z" id="Shape" fill="#427FE0"></path>
                    <path d="M96,79.6734694 C94.3673469,79.6326531 92.8571429,79.3469388 91.4285714,78.4897959 C90.7346939,78.0816327 90.4897959,77.6326531 91.0612245,76.9387755 C91.2244898,76.7346939 91.3877551,76.4897959 91.5102041,76.244898 C91.7959184,75.5918367 92.122449,75.6326531 92.6938776,75.9591837 C93.7959184,76.6530612 94.9795918,77.1836735 96.3265306,77.1020408 C96.6530612,77.1020408 97.0204082,77.0612245 97.3061224,76.9387755 C97.755102,76.7755102 98.1632653,76.4897959 98.1632653,75.9183673 C98.1632653,75.3469388 97.755102,75.1020408 97.2653061,74.9387755 C95.8367347,74.5306122 94.3265306,74.4489796 92.9387755,73.755102 C90.9795918,72.8163265 90.3673469,70.6530612 91.5102041,68.7755102 C92.244898,67.5510204 93.4693878,67.1020408 94.7346939,66.8979592 C96.4489796,66.6122449 98.122449,66.8571429 99.6734694,67.6734694 C100.897959,68.2857143 100.897959,68.4081633 100.285714,69.5918367 C99.877551,70.3673469 99.5510204,70.7755102 98.6530612,70.0816327 C97.6734694,69.3469388 96.4489796,69.2244898 95.2653061,69.4285714 C94.7346939,69.5102041 94.2857143,69.8367347 94.2040816,70.4081633 C94.1632653,71.0204082 94.6938776,71.1836735 95.1428571,71.3061224 C96.3265306,71.6326531 97.5102041,71.8367347 98.6938776,72.244898 C100.204082,72.7346939 101.183673,73.7142857 101.306122,75.4285714 C101.387755,77.1836735 100.530612,78.5306122 98.8979592,79.1836735 C98,79.5102041 97.0204082,79.7142857 96,79.6734694 Z" id="Path" fill="#427FE0"></path>
                    <path d="M133.673469,79.1428571 C132.44898,78.5714286 131.387755,78.1632653 130.367347,77.6326531 C129.795918,77.3469388 129.306122,77.3469388 128.734694,77.6734694 C127.877551,78.122449 127.020408,78.4489796 126.163265,78.8979592 C125.510204,79.2244898 125.387755,78.9795918 125.469388,78.4081633 C125.591837,77.5918367 125.632653,76.7755102 125.795918,76 C126,75.0612245 125.755102,74.3673469 125.102041,73.7142857 C124.489796,73.1428571 123.918367,72.4897959 123.306122,71.877551 C122.857143,71.4285714 122.979592,71.1836735 123.55102,71.0612245 C124.489796,70.8979592 125.428571,70.6938776 126.367347,70.5306122 C127.061224,70.4081633 127.510204,70.122449 127.836735,69.4693878 C128.244898,68.6122449 128.734694,67.7959184 129.183673,66.9795918 C129.469388,66.4081633 129.714286,66.4489796 130,66.9795918 C130.408163,67.7142857 130.897959,68.4489796 131.183673,69.2244898 C131.55102,70.2040816 132.244898,70.5306122 133.183673,70.6530612 C134,70.7755102 134.77551,70.9387755 135.591837,71.1020408 C136.081633,71.2244898 136.204082,71.4285714 135.836735,71.8367347 C135.142857,72.5714286 134.44898,73.3469388 133.755102,74.0408163 C133.346939,74.4489796 133.22449,74.8979592 133.306122,75.5102041 C133.510204,76.6530612 133.755102,77.8367347 133.673469,79.1428571 Z" id="Path" fill="#427FE0"></path>
                    <path d="M181.55102,79.1836735 C180.408163,78.6530612 179.387755,78.244898 178.44898,77.755102 C177.795918,77.3877551 177.22449,77.3469388 176.530612,77.7142857 C175.755102,78.1632653 174.857143,78.4897959 174.040816,78.8979592 C173.387755,79.2244898 173.265306,78.9795918 173.346939,78.4081633 C173.469388,77.5102041 173.510204,76.5714286 173.673469,75.6734694 C173.836735,74.9387755 173.632653,74.4081633 173.183673,73.9183673 C172.530612,73.2653061 171.918367,72.5714286 171.265306,71.9591837 C170.693878,71.4285714 170.938776,71.1836735 171.591837,71.0612245 C172.571429,70.8979592 173.510204,70.6530612 174.489796,70.4897959 C175.061224,70.4081633 175.387755,70.122449 175.632653,69.6326531 C176.081633,68.7755102 176.612245,67.9183673 177.020408,67.0612245 C177.346939,66.4081633 177.55102,66.5306122 177.836735,67.1020408 C178.244898,67.877551 178.693878,68.6530612 179.102041,69.4285714 C179.469388,70.1632653 180,70.5714286 180.816327,70.6530612 C181.673469,70.7346939 182.489796,70.9387755 183.306122,71.1020408 C183.877551,71.2244898 184.204082,71.4693878 183.591837,71.9183673 C181.387755,73.5510204 180.653061,75.6326531 181.469388,78.2857143 C181.632653,78.4489796 181.55102,78.7346939 181.55102,79.1836735 Z" id="Path" fill="#427FE0"></path>
                    <path d="M157.428571,78.4081633 C157.510204,77.5102041 157.591837,76.4489796 157.755102,75.4285714 C157.877551,74.8163265 157.673469,74.4081633 157.265306,74 C156.612245,73.3469388 156,72.6530612 155.387755,72 C155.22449,71.7959184 154.897959,71.6734694 155.020408,71.3469388 C155.142857,71.0612245 155.469388,71.1020408 155.755102,71.0612245 C156.693878,70.8571429 157.632653,70.6530612 158.530612,70.5306122 C159.061224,70.4489796 159.346939,70.2040816 159.591837,69.7142857 C160.040816,68.8163265 160.571429,67.9183673 161.020408,67.0204082 C161.265306,66.5306122 161.510204,66.4897959 161.755102,66.9795918 C162.204082,67.7959184 162.693878,68.5306122 163.102041,69.3877551 C163.469388,70.1632653 164,70.5306122 164.816327,70.6122449 C165.673469,70.7346939 166.489796,70.9387755 167.306122,71.0612245 C167.918367,71.1428571 168.122449,71.3469388 167.632653,71.877551 C166.979592,72.5714286 166.367347,73.2653061 165.673469,73.9591837 C165.265306,74.3673469 165.061224,74.8163265 165.142857,75.4285714 C165.265306,76.2857143 165.346939,77.1836735 165.469388,78.0408163 C165.510204,78.3673469 165.755102,78.7346939 165.387755,78.9795918 C165.061224,79.1836735 164.734694,78.8979592 164.44898,78.7755102 C163.755102,78.4489796 163.020408,78.122449 162.326531,77.755102 C161.755102,77.4285714 161.22449,77.3877551 160.612245,77.7142857 C159.714286,78.2040816 158.77551,78.5714286 157.836735,79.0204082 C157.510204,79.1836735 157.306122,79.1020408 157.428571,78.4081633 Z" id="Path" fill="#427FE0"></path>
                    <path d="M117.714286,79.1836735 C116.612245,78.6530612 115.55102,78.244898 114.571429,77.7142857 C113.959184,77.3877551 113.428571,77.3469388 112.77551,77.6734694 C111.755102,78.2040816 110.693878,78.6530612 109.591837,79.1428571 C109.469388,77.8367347 109.755102,76.6530612 109.918367,75.5102041 C110,74.8571429 109.836735,74.4081633 109.387755,73.9591837 C108.734694,73.3061224 108.122449,72.5714286 107.428571,71.877551 C106.938776,71.3877551 107.061224,71.1428571 107.714286,71.0204082 C108.693878,70.8163265 109.632653,70.6122449 110.612245,70.4489796 C111.183673,70.3673469 111.55102,70.122449 111.795918,69.6326531 C112.244898,68.7755102 112.734694,67.9183673 113.183673,67.0204082 C113.469388,66.4489796 113.714286,66.3673469 114.040816,66.9795918 C114.489796,67.7959184 114.938776,68.5714286 115.346939,69.3877551 C115.673469,70.0816327 116.163265,70.4081633 116.897959,70.5306122 C117.755102,70.6530612 118.612245,70.8571429 119.510204,70.9795918 C120.244898,71.1020408 120.285714,71.3877551 119.795918,71.877551 C119.22449,72.4897959 118.653061,73.1428571 118.040816,73.7142857 C117.428571,74.244898 117.306122,74.8571429 117.387755,75.6326531 C117.510204,76.7755102 117.795918,77.877551 117.714286,79.1836735 Z" id="Path" fill="#427FE0"></path>
                    <path d="M141.510204,78.4489796 C141.632653,77.3877551 141.714286,76.3673469 141.836735,75.3061224 C141.918367,74.7346939 141.714286,74.3265306 141.346939,73.9591837 C140.653061,73.2653061 140.040816,72.4897959 139.346939,71.7959184 C138.857143,71.3061224 139.102041,71.1428571 139.632653,71.0204082 C140.489796,70.8571429 141.346939,70.6530612 142.244898,70.5714286 C143.020408,70.4489796 143.55102,70.122449 143.918367,69.4285714 C144.326531,68.6122449 144.816327,67.8367347 145.22449,67.0204082 C145.510204,66.4897959 145.755102,66.4489796 146.040816,67.0204082 C146.44898,67.8367347 146.979592,68.6122449 147.346939,69.4285714 C147.673469,70.122449 148.163265,70.4489796 148.897959,70.5714286 C149.755102,70.6938776 150.612245,70.8979592 151.510204,71.0612245 C152.244898,71.1836735 152.285714,71.4693878 151.795918,71.9591837 C151.346939,72.4081633 150.979592,72.9795918 150.489796,73.3877551 C149.387755,74.2040816 149.265306,75.2653061 149.469388,76.4489796 C149.55102,77.0612245 149.591837,77.6734694 149.714286,78.244898 C149.877551,79.0204082 149.591837,79.3061224 148.979592,78.8571429 C146.77551,77.3061224 144.571429,77.2244898 142.367347,78.8571429 C141.959184,79.0612245 141.387755,79.3061224 141.510204,78.4489796 Z" id="Path" fill="#427FE0"></path>
                    <path d="M44.4897959,79.2653061 C44.1632653,79.2653061 43.7959184,79.2244898 43.4693878,79.2653061 C42.9387755,79.3061224 42.6122449,79.1020408 42.4081633,78.5714286 C41.0204082,75.1020408 39.6326531,71.6734694 38.2040816,68.2040816 C37.877551,67.3877551 38.122449,67.2244898 38.8979592,67.2244898 C41.3061224,67.2244898 41.3061224,67.1836735 42.1632653,69.4285714 C42.7755102,71.0204082 43.3877551,72.6530612 44,74.244898 C44.0816327,74.4897959 44.122449,74.8571429 44.4081633,74.8979592 C44.7755102,74.9387755 44.7346939,74.5306122 44.8163265,74.2857143 C45.6326531,72.2040816 46.4081633,70.122449 47.1836735,68 C47.3877551,67.4693878 47.6326531,67.1836735 48.2857143,67.1836735 C51.1020408,67.1428571 51.1020408,67.1020408 50.0408163,69.6734694 C48.9795918,72.3265306 47.9183673,74.9387755 46.8163265,77.5918367 C46.0816327,79.5102041 46.5306122,79.2244898 44.4897959,79.2653061 Z" id="Path" fill="#427FE0"></path>
                    <path d="M55.6326531,73.3469388 C55.6326531,75.0204082 55.5918367,76.7346939 55.6326531,78.4081633 C55.6326531,79.0204082 55.4285714,79.2244898 54.8163265,79.2244898 C51.8367347,79.1428571 52.4489796,79.6734694 52.4081633,76.8571429 C52.3673469,73.9591837 52.4081633,71.0204082 52.3673469,68.122449 C52.3673469,67.3877551 52.6122449,67.2244898 53.3061224,67.1836249 C55.6326531,67.1836249 55.6326531,67.1428571 55.6326531,69.4285714 C55.6326531,70.7755102 55.6326531,72.0816327 55.6326531,73.3469388 Z" id="Path" fill="#427FE0"></path>
                    <path d="M53.877551,62.0408163 C54.8979592,62.0408163 55.8367347,62.9387755 55.8367347,63.9591837 C55.8367347,65.0204082 54.9387755,65.9183673 53.9183673,65.9183673 C52.8979592,65.9183673 52,65.0204082 51.9591837,64 C51.9183673,63.0204082 52.8571429,62.0816327 53.877551,62.0408163 Z" id="Path" fill="#427FE0"></path>
                    <path d="M147.020408,34.4489796 C147.020408,37.6734694 146.040816,40.4897959 143.510204,42.4897959 C139.510204,45.6734694 133.918367,44.6530612 130.897959,40.2040816 C127.877551,35.755102 129.142857,29.1020408 133.55102,26.0816327 C138.040816,23.0204082 144.163265,24.9387755 146.163265,30 C146.734694,31.4693878 147.061224,32.9387755 147.020408,34.4489796 Z" id="Path" fill="#F8F8F8"></path>
                    <path d="M103.102041,44.3265306 C99.3469388,44.2040816 96.6122449,42.4081633 94.9387755,39.0612245 C92.8571429,34.9387755 94.0408163,29.2244898 97.5102041,26.5714286 C102.122449,23.0204082 108.408163,24.4081633 111.22449,29.6326531 C113.632653,34.122449 112.122449,40.1632653 107.877551,42.9795918 C106.44898,43.877551 104.897959,44.3265306 103.102041,44.3265306 Z" id="Path" fill="#F8F8F8"></path>
                    <path d="M76.8979592,34.5714286 C76.7755102,38.3673469 75.3469388,41.4285714 71.9183673,43.2653061 C67.7142857,45.5102041 62.8571429,44.1632653 60.244898,40.1632653 C57.4693878,35.9183673 58.2857143,29.9183673 62.0816327,26.7755102 C67.1020408,22.6122449 74.7755102,25.0204082 76.4897959,31.3877551 C76.7346939,32.4081633 76.9387755,33.4693878 76.8979592,34.5714286 Z" id="Path" fill="#F8F8F8"></path>
                    <path d="M177.061224,39.0612245 C179.959184,37.877551 182.816327,36.6938776 185.714286,35.5102041 C189.428571,34 193.102041,32.4081633 196.816327,30.9387755 C197.795918,30.5306122 197.877551,30.122449 197.510204,29.1836735 C196.77551,27.5102041 196,25.8367347 194.938776,24.3265306 C190.163265,17.5918367 180.77551,16.244898 174.326531,21.3061224 C170.081633,24.6530612 168.44898,29.1836735 168.244898,34.3265306 C168.285714,35.7959184 168.44898,37.1428571 168.77551,38.5306122 C170.530612,45.7959184 176.44898,50.5306122 183.918367,50.6122449 C189.428571,50.6530612 193.836735,48.4081633 197.183673,44.0816327 C197.55102,43.6326531 197.55102,43.3469388 197.061224,43.0204082 C195.591837,42.0408163 194.122449,41.0612245 192.653061,40.0816327 C192.285714,39.8367347 191.959184,39.8367347 191.714286,40.244898 C191.510204,40.5306122 191.306122,40.7755102 191.102041,41.0612245 C187.510204,45.3877551 179.918367,45.5510204 176.734694,40.122449 C176.367347,39.5918367 176.408163,39.3469388 177.061224,39.0612245 Z M176.040816,33.6734694 C175.836735,33.755102 175.673469,33.7959184 175.55102,33.8367347 C175.510204,33.8367347 175.469388,33.8367347 175.428571,33.8367347 C175.020408,33.7959184 175.102041,33.3061224 175.142857,32.8163265 C175.265306,30.7755102 176.122449,28.8979592 177.387755,27.4285714 C177.795918,26.9387755 178.285714,26.5306122 178.816327,26.1632653 C178.816327,26.1632653 178.816327,26.1632653 178.857143,26.1632653 C179.22449,25.877551 179.632653,25.6326531 180.040816,25.4285714 C180.040816,25.4285714 180.040816,25.4285714 180.081633,25.4285714 C181.22449,24.8571429 182.489796,24.5306122 183.755102,24.5714286 C183.755102,24.5714286 183.755102,24.5714286 183.755102,24.5714286 C184.081633,24.5714286 184.408163,24.6122449 184.734694,24.6530612 C185.22449,24.7346939 185.714286,24.8163265 186.204082,25.0204082 C187.428571,25.4285714 188.408163,26.2040816 189.183673,27.1836735 C189.591837,27.7142857 189.673469,28.0816327 188.897959,28.4081633 C184.612245,30.0816327 180.326531,31.877551 176.040816,33.6734694 Z" id="Shape" fill="#427FE0"></path>
                    <path d="M16.3673469,70.244898 C14.0816327,70.244898 14.0816327,70.244898 14.0816327,67.9591837 C14.0816327,65.8367347 14.0816327,65.8367347 16.244898,65.8367347 C16.8979592,65.8367347 17.5510204,65.7959184 18.1632653,65.877551 C19.4693878,66 20.244898,66.8979592 20.2040816,68.122449 C20.1632653,69.3061224 19.3469388,70.1632653 18.0408163,70.2857143 C17.5102041,70.2857143 16.9387755,70.244898 16.3673469,70.244898 Z" id="Path" fill="#F8F8F8"></path>
                    <path d="M63.9591837,72.0816327 C63.2653061,72.0816327 62.5306122,72.0816327 61.8367347,72.0816327 C61.2244898,72.0816327 61.1428571,71.7959184 61.3061224,71.3061224 C61.6326531,70.2040816 62.7346939,69.4693878 64.0816327,69.4693878 C65.4285714,69.4693878 66.5306122,70.2040816 66.8571429,71.2653061 C67.0204082,71.8367347 66.8571429,72.0816327 66.244898,72.0816327 C65.4285714,72.0408163 64.6938776,72.0816327 63.9591837,72.0816327 Z" id="Path" fill="#F8F8F8"></path>
                    <path d="M31.2653061,72.0816327 C30.5714286,72.0816327 29.8367347,72.0816327 29.1428571,72.0816327 C28.5306122,72.0816327 28.3265306,71.877551 28.5714286,71.2653061 C28.9795918,70.1632653 29.9591837,69.5102041 31.2653061,69.4693878 C32.6938776,69.4693878 33.6326531,70 34.0816327,71.1836735 C34.3265306,71.755102 34.244898,72.0816327 33.5102041,72.0816327 C32.7755102,72.0408163 32,72.0816327 31.2653061,72.0816327 Z" id="Path" fill="#F8F8F8"></path>
                </g>
            </g>
        </g>
    </g>
</svg>