<?xml version="1.0" encoding="UTF-8"?>
<svg width="165px" height="96px" viewBox="0 0 165 96" version="1.1" xmlns="http://www.w3.org/2000/svg" xmlns:xlink="http://www.w3.org/1999/xlink">
    <!-- Generator: Sketch 63.1 (92452) - https://sketch.com -->
    <title>logo_content_king_certified_partner</title>
    <desc>Created with Sketch.</desc>
    <defs>
        <rect id="path-1" x="0" y="0" width="129" height="60"></rect>
        <filter x="-24.4%" y="-37.5%" width="148.8%" height="205.0%" filterUnits="objectBoundingBox" id="filter-2">
            <feOffset dx="0" dy="9" in="SourceAlpha" result="shadowOffsetOuter1"></feOffset>
            <feGaussianBlur stdDeviation="9" in="shadowOffsetOuter1" result="shadowBlurOuter1"></feGaussianBlur>
            <feColorMatrix values="0 0 0 0 0   0 0 0 0 0   0 0 0 0 0  0 0 0 0.25 0" type="matrix" in="shadowBlurOuter1"></feColorMatrix>
        </filter>
    </defs>
    <g id="Symbols" stroke="none" stroke-width="1" fill="none" fill-rule="evenodd">
        <g id="Footer-SINGAPORE" transform="translate(-763.000000, -711.000000)">
            <g id="logo_content_king_certified_partner" transform="translate(781.000000, 720.000000)">
                <g id="Rectangle">
                    <use fill="black" fill-opacity="1" filter="url(#filter-2)" xlink:href="#path-1"></use>
                    <use fill="#FFFFFF" fill-rule="evenodd" xlink:href="#path-1"></use>
                </g>
                <g transform="translate(7.000000, 15.000000)" fill-rule="nonzero">
                    <g id="logo_1_">
                        <g id="SVGID_1_-link" transform="translate(74.002908, 0.000000)" fill="#5C6773">
                            <path d="M12.4355935,4.42648739 L12.4355935,11.7906807 C12.4355935,12.8433782 12.8987586,13.1481681 14.0812526,13.1481681 C14.8937321,13.1481681 15.2818592,13.0942437 15.5328481,13.0590756 L15.5716608,11.6828319 C15.0489829,11.6828319 14.6427432,11.6476639 14.3322415,11.5773277 L14.3322415,4.42883193 L12.4355935,4.42883193 L12.4355935,4.42648739 Z M19.8410594,5.67847059 C19.6858085,4.65859664 18.9897672,4.28347059 18.0013367,4.28347059 C17.4760713,4.28347059 17.0905317,4.40773109 16.9352808,4.44289916 L16.8964681,5.80273109 C17.3803333,5.80273109 17.7115351,5.83789916 18.0013367,5.90823529 L18.0013367,13.0028067 L19.8798721,13.0028067 L19.8798721,8.08865546 C19.8798721,6.89294118 20.9847407,5.80273109 22.4932615,5.80273109 C24.0431825,5.80273109 24.6822985,6.62331933 24.6822985,8.08865546 L24.6822985,11.7320672 C24.6822985,12.894958 25.1454636,13.1458235 26.4262832,13.1458235 C27.1042119,13.1458235 27.4509388,13.1106555 27.7821406,13.0567311 L27.8209533,11.6804874 C27.295688,11.6804874 26.8920357,11.6453193 26.581534,11.5749832 L26.581534,7.84013445 C26.581534,5.60578992 25.4585528,4.24830252 23.039227,4.24830252 C21.5643439,4.24830252 20.5008755,4.83678151 19.8410594,5.67847059 M30.7008567,13.7366471 C30.7008567,13.2185042 30.9725457,12.8597899 31.3787855,12.6089244 L31.6478869,12.6089244 L34.8641672,12.6089244 C35.9483356,12.6089244 36.3933881,13.0028067 36.3933881,13.6803782 C36.3933881,14.5033109 35.3868451,15.040218 33.5083097,15.040218 C31.4357108,15.0425546 30.7008567,14.5220672 30.7008567,13.7366471 M31.5133362,7.05236975 C31.5133362,6.0700084 32.1524522,5.46277311 33.4306843,5.46277311 C34.6882162,5.46277311 35.3480323,6.0700084 35.3480323,7.05236975 C35.3480323,8.03473109 34.6882162,8.57163025 33.4306843,8.57163025 C32.1550397,8.57163025 31.5133362,8.03473109 31.5133362,7.05236975 M35.2341817,4.51557983 C34.7115038,4.33739496 34.1112005,4.24830252 33.4332718,4.24830252 C31.0320585,4.24830252 29.6762011,5.44636134 29.6762011,7.07112605 C29.6762011,7.89405882 30.0462156,8.55521849 30.6827441,9.01943697 C29.8495645,9.52116807 29.383812,10.074479 29.383812,10.8598992 C29.383812,11.378042 29.6166882,11.8258487 30.022928,12.1282941 C29.4226247,12.5034202 28.8999468,13.1106555 28.8999468,14.0601933 C28.8999468,15.4903613 30.2765044,16.400042 33.3944591,16.400042 C36.6857772,16.400042 38.2175857,15.1668151 38.2175857,13.452958 C38.2175857,12.1822185 37.3844061,11.2373697 35.4489454,11.2373697 L32.1757399,11.2373697 C31.4201857,11.2373697 31.0320585,10.9700924 31.0320585,10.3816134 C31.0320585,10.0604118 31.1873094,9.77203361 31.6504745,9.48834454 C32.1550397,9.66652941 32.755343,9.75562185 33.4332718,9.75562185 C35.8732977,9.75562185 37.1722299,8.66541176 37.1722299,7.00313445 C37.1722299,6.27163866 36.9005409,5.64564706 36.3959756,5.16267227 C36.6857772,4.62577311 37.2110426,4.30457143 38.1580728,4.26940336 L37.9640093,2.75014286 C36.4529009,2.78296639 35.5602085,3.31986555 35.2341817,4.51557983 M12.0862791,1.63883193 C12.0862791,2.3187479 12.6684698,2.83689076 13.3852113,2.83689076 C14.1407654,2.83689076 14.6841434,2.3187479 14.6841434,1.63883193 C14.6841434,0.961260504 14.1407654,0.459529412 13.3852113,0.459529412 C12.6684698,0.459529412 12.0862791,0.958915966 12.0862791,1.63883193 M3.94337174,5.90823529 L1.98721095,5.90823529 L1.98721095,0.316512605 L0.0129375713,0.316512605 L0.0129375713,13.0051513 L1.98721095,13.0051513 L1.98721095,7.66194958 L3.94337174,7.66194958 L7.33301542,11.9501092 C8.16619501,13.021563 8.72768561,13.1481681 9.75492877,13.1481681 C10.1818686,13.1481681 10.5492956,13.113 10.87791,13.0590756 L10.9374228,11.5937395 C9.52205249,11.5937395 9.34868903,11.4858908 8.84671126,10.8786555 L5.43636747,6.7147563 L10.802872,0.424361345 L8.67076029,0.173495798 L3.94337174,5.90823529 Z" id="SVGID_1_"></path>
                        </g>
                        <path d="M14.9920576,8.72168067 C14.9920576,6.80619328 16.0632885,5.74177311 17.8357358,5.74177311 C19.6081831,5.74177311 20.679414,6.80619328 20.679414,8.72168067 C20.679414,10.6371681 19.6081831,11.6640756 17.8357358,11.6640756 C16.0632885,11.6640756 14.9920576,10.6348235 14.9920576,8.72168067 M13.0462469,8.72168067 C13.0462469,11.5398151 15.0334579,13.1552017 17.8383233,13.1552017 C20.6431888,13.1552017 22.6303997,11.5421597 22.6303997,8.72168067 C22.6303997,5.86603361 20.6431888,4.25298899 17.8383233,4.25298899 C15.0334579,4.25064706 13.0462469,5.83086555 13.0462469,8.72168067 M26.5556589,5.66909244 C26.400408,4.65859664 25.6991917,4.28581513 24.7055862,4.28581513 C24.1803208,4.28581513 23.7921936,4.41007563 23.6343553,4.4452437 L23.5955426,5.79335294 C24.0819952,5.79335294 24.4131971,5.82852101 24.7055862,5.89885714 L24.7055862,12.9395042 L26.5944716,12.9395042 L26.5944716,8.06286555 C26.5944716,6.87418487 27.7045152,5.79335294 29.2233861,5.79335294 C30.7836572,5.79335294 31.4253607,6.6092521 31.4253607,8.06286555 L31.4253607,11.6804874 C31.4253607,12.8316555 31.8911133,13.0801765 33.1796954,13.0801765 C33.8602116,13.0801765 34.2121136,13.0450084 34.5407279,12.991084 L34.5795406,11.626563 C34.0542752,11.626563 33.645448,11.591395 33.3323587,11.5187143 L33.3323587,7.812 C33.3323587,5.59641176 32.201615,4.24830252 29.7693516,4.24830252 C28.2892934,4.25064706 27.2180625,4.83678151 26.5556589,5.66909244 M47.5999124,5.68784874 C48.8652068,5.68784874 49.7604868,6.30915126 49.8769249,7.92219328 L45.1443613,7.92219328 C45.3772376,6.30915126 46.3320304,5.68784874 47.5999124,5.68784874 M43.1571504,8.59742017 C43.1571504,11.4530672 44.8131595,13.1552017 47.8871265,13.1552017 C49.6802738,13.1552017 51.0827066,12.5690672 51.607972,12.1611176 L51.1215193,10.723916 C50.7515047,11.0451176 49.6233485,11.6828319 48.1044777,11.6828319 C46.254405,11.6828319 45.2607995,10.8317647 45.1055486,9.12963025 L51.804623,9.12963025 L51.804623,8.36531092 C51.804623,6.07704202 50.4228904,4.25064706 47.5766247,4.25064706 C44.8700848,4.25064706 43.1571504,6.06063025 43.1571504,8.59742017 M56.5475367,5.66909244 C56.3896983,4.65859664 55.6910695,4.28581513 54.697464,4.28581513 C54.1721986,4.28581513 53.7814839,4.41007563 53.6262331,4.4452437 L53.5874204,5.79335294 C54.0738731,5.79335294 54.4050749,5.82852101 54.697464,5.89885714 L54.697464,12.9395042 L56.5863494,12.9395042 L56.5863494,8.06286555 C56.5863494,6.87418487 57.696393,5.79335294 59.2152639,5.79335294 C60.7729475,5.79335294 61.4172385,6.6092521 61.4172385,8.06286555 L61.4172385,11.6804874 C61.4172385,12.8316555 61.8829911,13.0801765 63.1715732,13.0801765 C63.8520895,13.0801765 64.2039914,13.0450084 64.5326057,12.991084 L64.5714184,11.626563 C64.046153,11.626563 63.6373258,11.591395 63.3242365,11.5187143 L63.3242365,7.812 C63.3242365,5.59641176 62.1960803,4.24830252 59.7612294,4.24830252 C58.2785837,4.25064706 57.2073528,4.83678151 56.5475367,5.66909244 M37.1696424,1.94596639 L37.1696424,4.42883193 L35.4178952,4.42883193 L35.4178952,5.88244538 L37.1696424,5.88244538 L37.1696424,10.6723361 C37.1696424,12.6229916 38.007997,13.1552017 39.7028188,13.1552017 C40.6964243,13.1552017 41.3795281,12.9770168 41.7469551,12.8715126 L41.6098169,11.3827311 C41.3174277,11.4882353 40.8516752,11.6476639 40.1685714,11.6476639 C39.4880552,11.6476639 39.0766404,11.4178992 39.0766404,10.5504202 L39.0766404,5.88713445 L41.902206,5.88713445 L41.902206,4.43352101 L39.0766404,4.43352101 L39.0766404,1.94596639 L37.1696424,1.94596639 Z M66.8950062,1.94596639 L66.8950062,4.42883193 L65.1432591,4.42883193 L65.1432591,5.88244538 L66.8950062,5.88244538 L66.8950062,10.6723361 C66.8950062,12.6229916 67.7333608,13.1552017 69.4281827,13.1552017 C70.4217882,13.1552017 71.1023044,12.9770168 71.472319,12.8715126 L71.3351807,11.3827311 C71.0427916,11.4882353 70.577039,11.6476639 69.8939353,11.6476639 C69.213419,11.6476639 68.8045918,11.4178992 68.8045918,10.5504202 L68.8045918,5.88713445 L71.6275698,5.88713445 L71.6275698,4.43352101 L68.8045918,4.43352101 L68.8045918,1.94596639 L66.8950062,1.94596639 Z M-2.89409883e-13,6.73351261 C-2.89409883e-13,10.8294202 2.68842732,13.1528571 6.81551257,13.1528571 C9.34868903,13.1528571 10.8856725,12.5315546 11.6257016,12.0345126 L11.1961742,10.4027143 C10.4380325,10.8458319 9.09252512,11.4835462 7.08720156,11.4835462 C3.98994699,11.4835462 2.04154875,9.765 2.04154875,6.66083193 C2.04154875,3.31048739 3.83469614,1.74902521 6.30577226,1.74902521 C8.58537232,1.74902521 9.73422865,2.65401681 9.82996668,4.41007563 L11.7964775,4.17796639 C11.7964775,1.83811765 9.96710494,0.171151261 6.32388486,0.171151261 C2.62632698,0.173495798 -2.89409883e-13,2.42659664 -2.89409883e-13,6.73351261" id="Shape" fill="#17A1E5"></path>
                    </g>
                    <path d="M16.8505544,31 C17.5725042,31 18.1894246,30.8836566 18.7013156,30.6509699 C19.2132066,30.4182831 19.6486199,30.0937463 20.0075554,29.6773595 L20.0075554,29.6773595 L19.5425708,29.1691226 C19.4895462,29.1160537 19.4304034,29.0895192 19.3651424,29.0895192 C19.2998814,29.0895192 19.232581,29.1201359 19.1632412,29.1813693 C19.0082463,29.3201649 18.8542711,29.4395699 18.7013156,29.5395844 C18.5483602,29.6395989 18.3831682,29.7222639 18.2057399,29.7875795 C18.0283115,29.8528951 17.8355876,29.9008612 17.6275682,29.9314779 C17.4195487,29.9620946 17.185017,29.9774029 16.923973,29.9774029 C16.4956976,29.9774029 16.095974,29.8998407 15.724802,29.7447162 C15.3536301,29.5895916 15.0324236,29.3640488 14.7611825,29.0680875 C14.4899415,28.7721263 14.2758038,28.4098289 14.1187695,27.9811954 C13.9617352,27.5525619 13.8832181,27.0647362 13.8832181,26.5177182 C13.8832181,25.9870291 13.9617352,25.5073678 14.1187695,25.0787342 C14.2758038,24.6501007 14.49504,24.2867828 14.7764781,23.9887805 C15.0579162,23.6907781 15.3933985,23.461153 15.7829251,23.2999052 C16.1724517,23.1386573 16.6017468,23.0580334 17.0708102,23.0580334 C17.3318543,23.0580334 17.5623072,23.077424 17.762169,23.1162051 C17.9620308,23.1549862 18.1374198,23.2029524 18.2883358,23.2601035 C18.4392519,23.3172546 18.5697739,23.378488 18.6799019,23.4438036 C18.7900298,23.5091192 18.8858819,23.5703525 18.9674582,23.6275037 C19.0490344,23.6846548 19.1193939,23.7326209 19.1785367,23.771402 C19.2376795,23.8101832 19.2937632,23.8295737 19.3467878,23.8295737 C19.4161276,23.8295737 19.4691521,23.8163065 19.5058614,23.7897721 C19.5425708,23.7632376 19.5752013,23.7295593 19.603753,23.688737 L19.603753,23.688737 L19.9892008,23.1437601 C19.6261864,22.8008533 19.2111672,22.5293854 18.7441432,22.3293565 C18.2771191,22.1293275 17.7213809,22.029313 17.0769285,22.029313 C16.4243184,22.029313 15.8277921,22.1385125 15.2873494,22.3569115 C14.7469067,22.5753104 14.2829417,22.8824978 13.8954545,23.2784735 C13.5079673,23.6744492 13.2071549,24.1479872 12.9930172,24.6990874 C12.7788795,25.2501877 12.6718107,25.8563979 12.6718107,26.5177182 C12.6718107,27.1790384 12.7717416,27.7852487 12.9716034,28.3363489 C13.1714653,28.8874491 13.4529033,29.3599666 13.8159177,29.7539012 C14.178932,30.1478358 14.6174044,30.4540026 15.1313348,30.6724015 C15.6452652,30.8908005 16.2183384,31 16.8505544,31 Z M23.9109792,30.9877533 C24.1353139,30.9877533 24.361688,30.9683628 24.5901015,30.9295816 C24.818515,30.8908005 25.0397906,30.8326288 25.2539283,30.7550666 C25.468066,30.6775043 25.6689475,30.5785104 25.8565729,30.4580848 C26.0441983,30.3376592 26.2053114,30.1958019 26.3399122,30.0325129 L26.3399122,30.0325129 L26.0340012,29.6344961 C25.9850555,29.5650983 25.9157157,29.5303994 25.8259818,29.5303994 C25.756642,29.5303994 25.674046,29.5620366 25.5781939,29.6253111 C25.4823418,29.6885856 25.3630365,29.7569628 25.2202781,29.8304429 C25.0775197,29.9039229 24.9072292,29.9723001 24.7094068,30.0355746 C24.5115844,30.0988491 24.276033,30.1304863 24.0027525,30.1304863 C23.709078,30.1304863 23.4439552,30.0825202 23.207384,29.9865879 C22.9708129,29.8906557 22.7668722,29.7457367 22.5955621,29.5518311 C22.424252,29.3579254 22.2896511,29.1160537 22.1917596,28.8262158 C22.0938681,28.5363779 22.0408436,28.1955122 22.0326859,27.8036187 L22.0326859,27.8036187 L26.1563656,27.8036187 C26.2583359,27.8036187 26.3276758,27.7750431 26.3643851,27.717892 C26.4010944,27.6607409 26.419449,27.5464386 26.419449,27.3749852 C26.419449,26.934105 26.3552077,26.541191 26.2267251,26.196243 C26.0982425,25.8512951 25.9197945,25.5614572 25.691381,25.3267293 C25.4629675,25.0920015 25.1917264,24.9123836 24.8776578,24.7878758 C24.5635893,24.663368 24.220969,24.6011141 23.849797,24.6011141 C23.4011276,24.6011141 22.9973252,24.6796969 22.6383896,24.8368625 C22.2794541,24.9940281 21.9755826,25.210386 21.726775,25.4859361 C21.4779674,25.7614862 21.2872829,26.0870435 21.1547215,26.4626081 C21.0221601,26.8381727 20.9558794,27.2423129 20.9558794,27.6750286 C20.9558794,28.2098 21.029298,28.6833379 21.1761353,29.0956426 C21.3229725,29.5079472 21.5279329,29.8539156 21.7910163,30.133548 C22.0540997,30.4131803 22.3661289,30.625456 22.7271038,30.7703749 C23.0880787,30.9152939 23.4827039,30.9877533 23.9109792,30.9877533 Z M25.440534,27.1239284 L22.0693953,27.1239284 C22.1428139,26.5850749 22.3304393,26.1635852 22.6322714,25.8594596 C22.9341036,25.5553339 23.3481031,25.403271 23.8742699,25.403271 C24.1230775,25.403271 24.3443531,25.4451138 24.5380967,25.5287994 C24.7318403,25.612485 24.8960125,25.7308695 25.0306133,25.8839529 C25.1652141,26.0370363 25.2671844,26.2186953 25.3365243,26.4289298 C25.4058641,26.6391643 25.440534,26.8708305 25.440534,27.1239284 L25.440534,27.1239284 Z M28.8973278,30.9020266 L28.8973278,26.952475 C29.0686379,26.532006 29.2817559,26.2115514 29.5366817,25.9911113 C29.7916075,25.7706712 30.1087352,25.6604512 30.4880648,25.6604512 C30.700163,25.6604512 30.8653549,25.6798417 30.9836405,25.7186228 C31.1019261,25.757404 31.1896206,25.7767945 31.2467239,25.7767945 C31.3446154,25.7767945 31.407837,25.7257667 31.4363887,25.6237111 L31.4363887,25.6237111 L31.5771078,24.8093075 C31.4588222,24.7399097 31.3303396,24.6858202 31.19166,24.6470391 C31.0529803,24.6082579 30.8979854,24.5888674 30.7266753,24.5888674 C30.3065576,24.5888674 29.9404841,24.7103135 29.628455,24.9532059 C29.3164258,25.1960982 29.0543621,25.5339022 28.8422638,25.9666179 L28.8422638,25.9666179 L28.7688452,24.9991309 C28.7525299,24.8889108 28.7219388,24.8113486 28.6770719,24.7664441 C28.632205,24.7215397 28.5506287,24.6990874 28.4323431,24.6990874 L28.4323431,24.6990874 L27.8082848,24.6990874 L27.8082848,30.9020266 L28.8973278,30.9020266 Z M34.6178627,31 C34.8993007,31 35.1725812,30.9499928 35.437704,30.8499783 C35.7028269,30.7499638 35.929201,30.6121887 36.1168263,30.4366531 L36.1168263,30.4366531 L35.7986789,29.9161696 C35.753812,29.8467718 35.7028269,29.8120728 35.6457235,29.8120728 C35.613093,29.8120728 35.575364,29.8273812 35.5325364,29.8579979 C35.4897089,29.8886145 35.437704,29.9222929 35.3765218,29.9590329 C35.3153396,29.9957729 35.2429407,30.0294513 35.1593251,30.0600679 C35.0757094,30.0906846 34.9767982,30.105993 34.8625914,30.105993 C34.6627296,30.105993 34.4995771,30.0427185 34.3731339,29.9161696 C34.2466907,29.7896206 34.1834691,29.595715 34.1834691,29.3344527 L34.1834691,29.3344527 L34.1834691,25.6114645 L35.9577526,25.6114645 L35.9577526,24.8215541 L34.1834691,24.8215541 L34.1834691,22.6845099 L33.6328294,22.6845099 C33.5634896,22.6845099 33.5063862,22.7039005 33.4615192,22.7426816 C33.4166523,22.7814628 33.39014,22.83147 33.3819824,22.8927034 L33.3819824,22.8927034 L33.1311354,24.8093075 L32.115511,24.9378975 L32.115511,25.3726544 C32.115511,25.4542988 32.1379445,25.5145116 32.1828115,25.5532928 C32.2276784,25.5920739 32.2827424,25.6114645 32.3480034,25.6114645 L32.3480034,25.6114645 L33.0944261,25.6114645 L33.0944261,29.4079327 C33.0944261,29.9222929 33.2259678,30.3162275 33.4890512,30.5897365 C33.7521347,30.8632455 34.1284051,31 34.6178627,31 Z M37.976765,23.5234069 C38.0828141,23.5234069 38.182745,23.5029958 38.2765577,23.4621736 C38.3703704,23.4213513 38.4529663,23.3652208 38.5243456,23.2937819 C38.5957248,23.2223429 38.6528282,23.1406985 38.6956557,23.0488484 C38.7384832,22.9569984 38.759897,22.8580045 38.759897,22.7518666 C38.759897,22.6457288 38.7384832,22.5446938 38.6956557,22.4487615 C38.6528282,22.3528292 38.5957248,22.2691437 38.5243456,22.1977047 C38.4529663,22.1262658 38.3703704,22.0701352 38.2765577,22.029313 C38.182745,21.9884908 38.0828141,21.9680796 37.976765,21.9680796 C37.8707158,21.9680796 37.7718046,21.9884908 37.6800313,22.029313 C37.588258,22.0701352 37.5066818,22.1262658 37.4353026,22.1977047 C37.3639233,22.2691437 37.3078397,22.3528292 37.2670515,22.4487615 C37.2262634,22.5446938 37.2058693,22.6457288 37.2058693,22.7518666 C37.2058693,22.8580045 37.2262634,22.9569984 37.2670515,23.0488484 C37.3078397,23.1406985 37.3639233,23.2223429 37.4353026,23.2937819 C37.5066818,23.3652208 37.588258,23.4213513 37.6800313,23.4621736 C37.7718046,23.5029958 37.8707158,23.5234069 37.976765,23.5234069 Z M38.5151682,30.9020266 L38.5151682,24.6990874 L37.4261252,24.6990874 L37.4261252,30.9020266 L38.5151682,30.9020266 Z M41.776179,30.9020266 L41.776179,25.6114645 L44.3947768,25.6114645 L44.3947768,30.9020266 L45.4838198,30.9020266 L45.4838198,24.8215541 L41.7394697,24.8215541 L41.7394697,24.509264 C41.7394697,23.9050949 41.9036419,23.4529886 42.2319863,23.1529451 C42.5603308,22.8529017 43.0854779,22.7028799 43.8074278,22.7028799 C43.86861,22.7028799 43.9236739,22.7039005 43.9726197,22.7059416 C44.0215654,22.7079827 44.0684718,22.7090033 44.1133387,22.7090033 C44.1908362,22.7090033 44.249979,22.7018594 44.2907671,22.6875716 C44.3315552,22.6732838 44.3560281,22.6396055 44.3641857,22.5865366 L44.3641857,22.5865366 L44.400895,22.0170663 C44.2826095,21.9762441 44.1429101,21.9456274 43.981797,21.9252163 C43.8206839,21.9048052 43.6626299,21.8945996 43.507635,21.8945996 C43.0385716,21.8945996 42.6276312,21.9578741 42.2748139,22.084423 C41.9219966,22.210972 41.6273024,22.3885487 41.3907312,22.6171532 C41.1541601,22.8457578 40.9767317,23.1182462 40.8584462,23.4346186 C40.7401606,23.7509909 40.6810178,24.0990005 40.6810178,24.4786473 L40.6810178,24.4786473 L40.6810178,24.8215541 L39.7021027,24.8215541 L39.7021027,25.2685577 C39.7021027,25.3502021 39.7296347,25.4124561 39.7846987,25.4553194 C39.8397627,25.4981828 39.9101222,25.52982 39.9957773,25.5502311 L39.9957773,25.5502311 L40.6810178,25.6298345 L40.6810178,30.9020266 L41.776179,30.9020266 Z M49.9256469,30.9877533 C50.1499816,30.9877533 50.3763557,30.9683628 50.6047692,30.9295816 C50.8331827,30.8908005 51.0544583,30.8326288 51.268596,30.7550666 C51.4827336,30.6775043 51.6836152,30.5785104 51.8712406,30.4580848 C52.0588659,30.3376592 52.2199791,30.1958019 52.3545799,30.0325129 L52.3545799,30.0325129 L52.0486689,29.6344961 C51.9997232,29.5650983 51.9303833,29.5303994 51.8406495,29.5303994 C51.7713096,29.5303994 51.6887137,29.5620366 51.5928616,29.6253111 C51.4970095,29.6885856 51.3777042,29.7569628 51.2349458,29.8304429 C51.0921873,29.9039229 50.9218969,29.9723001 50.7240745,30.0355746 C50.5262521,30.0988491 50.2907006,30.1304863 50.0174202,30.1304863 C49.7237457,30.1304863 49.4586228,30.0825202 49.2220517,29.9865879 C48.9854805,29.8906557 48.7815399,29.7457367 48.6102298,29.5518311 C48.4389196,29.3579254 48.3043188,29.1160537 48.2064273,28.8262158 C48.1085358,28.5363779 48.0555112,28.1955122 48.0473536,27.8036187 L48.0473536,27.8036187 L52.1710333,27.8036187 C52.2730036,27.8036187 52.3423434,27.7750431 52.3790527,27.717892 C52.4157621,27.6607409 52.4341167,27.5464386 52.4341167,27.3749852 C52.4341167,26.934105 52.3698754,26.541191 52.2413928,26.196243 C52.1129102,25.8512951 51.9344622,25.5614572 51.7060486,25.3267293 C51.4776351,25.0920015 51.2063941,24.9123836 50.8923255,24.7878758 C50.5782569,24.663368 50.2356367,24.6011141 49.8644647,24.6011141 C49.4157953,24.6011141 49.0119928,24.6796969 48.6530573,24.8368625 C48.2941218,24.9940281 47.9902502,25.210386 47.7414427,25.4859361 C47.4926351,25.7614862 47.3019506,26.0870435 47.1693892,26.4626081 C47.0368278,26.8381727 46.9705471,27.2423129 46.9705471,27.6750286 C46.9705471,28.2098 47.0439657,28.6833379 47.1908029,29.0956426 C47.3376402,29.5079472 47.5426005,29.8539156 47.805684,30.133548 C48.0687674,30.4131803 48.3807966,30.625456 48.7417715,30.7703749 C49.1027464,30.9152939 49.4973715,30.9877533 49.9256469,30.9877533 Z M51.4552017,27.1239284 L48.0840629,27.1239284 C48.1574816,26.5850749 48.3451069,26.1635852 48.6469391,25.8594596 C48.9487712,25.5553339 49.3627707,25.403271 49.8889376,25.403271 C50.1377451,25.403271 50.3590207,25.4451138 50.5527643,25.5287994 C50.7465079,25.612485 50.9106802,25.7308695 51.045281,25.8839529 C51.1798818,26.0370363 51.2818521,26.2186953 51.3511919,26.4289298 C51.4205318,26.6391643 51.4552017,26.8708305 51.4552017,27.1239284 L51.4552017,27.1239284 Z M55.7134822,30.9877533 C56.1539939,30.9877533 56.5445403,30.8908005 56.8851211,30.6968949 C57.225702,30.5029892 57.5285538,30.2447886 57.7936767,29.9222929 L57.7936767,29.9222929 L57.8915682,30.6754632 C57.9323563,30.8265055 58.0302478,30.9020266 58.1852427,30.9020266 L58.1852427,30.9020266 L58.8337739,30.9020266 L58.8337739,21.8823529 L57.7447309,21.8823529 L57.7447309,25.3236677 C57.5326326,25.0909809 57.2919827,24.9103425 57.0227811,24.7817525 C56.7535794,24.6531624 56.4293138,24.5888674 56.0499842,24.5888674 C55.6298665,24.5888674 55.2546157,24.6715324 54.9242319,24.8368625 C54.5938481,25.0021925 54.3134297,25.2297765 54.0829768,25.5196144 C53.8525239,25.8094523 53.6761152,26.1513386 53.5537508,26.5452732 C53.4313864,26.9392078 53.3702042,27.3647796 53.3702042,27.8219887 C53.3702042,28.3363489 53.4252682,28.7915169 53.5353962,29.1874926 C53.6455241,29.5834683 53.8025584,29.9141284 54.006499,30.179473 C54.2104397,30.4448176 54.4572078,30.6458671 54.7468035,30.7826216 C55.0363992,30.9193761 55.3586255,30.9877533 55.7134822,30.9877533 Z M56.0744571,30.105993 C55.8215707,30.105993 55.597236,30.0631296 55.401453,29.9774029 C55.20567,29.8916762 55.0404781,29.7559423 54.9058772,29.5702011 C54.7712764,29.3844599 54.6693061,29.1476909 54.5999663,28.8598941 C54.5306265,28.5720973 54.4959566,28.2261289 54.4959566,27.8219887 C54.4959566,27.0586128 54.6509514,26.4707726 54.9609412,26.058468 C55.270931,25.6461634 55.7155216,25.4400111 56.294713,25.4400111 C56.5843087,25.4400111 56.8484118,25.4941005 57.0870224,25.6022795 C57.3256329,25.7104584 57.5448691,25.8992612 57.7447309,26.168688 L57.7447309,26.168688 L57.7447309,29.1691226 C57.5203962,29.4671249 57.2746477,29.6977706 57.0074855,29.8610595 C56.7403233,30.0243485 56.4293138,30.105993 56.0744571,30.105993 Z M64.4992448,30.9020266 L64.4992448,27.6199186 L65.9064352,27.6199186 C66.4326021,27.6199186 66.8996261,27.5515414 67.3075074,27.4147869 C67.7153887,27.2780324 68.0569892,27.0871884 68.3323091,26.842255 C68.6076289,26.5973215 68.8166681,26.3054425 68.9594265,25.9666179 C69.102185,25.6277934 69.1735642,25.2542699 69.1735642,24.8460475 C69.1735642,24.4337429 69.1072835,24.0602194 68.9747221,23.725477 C68.8421607,23.3907347 68.6412792,23.104979 68.3720775,22.86821 C68.1028759,22.631441 67.7633147,22.4487615 67.353394,22.3201715 C66.9434733,22.1915814 66.4611537,22.1272864 65.9064352,22.1272864 L65.9064352,22.1272864 L63.3184285,22.1272864 L63.3184285,30.9020266 L64.4992448,30.9020266 Z M65.9064352,26.6769249 L64.4992448,26.6769249 L64.4992448,23.0641568 L65.9064352,23.0641568 C66.6039122,23.0641568 67.1249805,23.2213224 67.4696402,23.5356536 C67.8142999,23.8499849 67.9866297,24.2867828 67.9866297,24.8460475 C67.9866297,25.1154743 67.9417628,25.3624488 67.8520289,25.5869711 C67.762295,25.8114934 67.6297336,26.0043785 67.4543446,26.1656264 C67.2789557,26.3268742 67.0617589,26.4524026 66.8027543,26.5422115 C66.5437497,26.6320204 66.2449767,26.6769249 65.9064352,26.6769249 L65.9064352,26.6769249 Z M71.9022899,31 C72.1388611,31 72.3540185,30.9795889 72.5477621,30.9387666 C72.7415057,30.8979444 72.9240325,30.8377316 73.0953427,30.7581282 C73.2666528,30.6785249 73.4298053,30.5805515 73.5848002,30.4642081 C73.7397951,30.3478647 73.8988688,30.216213 74.0620213,30.069253 L74.0620213,30.069253 L74.1843857,30.6448465 C74.2047797,30.7509843 74.2476073,30.8203821 74.3128683,30.8530399 C74.3781293,30.8856977 74.4637843,30.9020266 74.5698335,30.9020266 L74.5698335,30.9020266 L75.0531728,30.9020266 L75.0531728,26.934105 C75.0531728,26.587116 75.0062664,26.2687025 74.9124537,25.9788646 C74.8186411,25.6890267 74.6799614,25.4420522 74.4964148,25.237941 C74.3128683,25.0338298 74.0864942,24.8746231 73.8172925,24.7603208 C73.5480909,24.6460185 73.2401405,24.5888674 72.8934414,24.5888674 C72.4121415,24.5888674 71.9736692,24.6705119 71.5780243,24.8338008 C71.1823795,24.9970898 70.8132469,25.2440643 70.4706267,25.5747244 L70.4706267,25.5747244 L70.6664097,25.9237546 C70.6990402,25.9809057 70.7428874,26.0288719 70.7979514,26.067653 C70.8530154,26.1064341 70.9172567,26.1258247 70.9906753,26.1258247 C71.084488,26.1258247 71.1793204,26.0921463 71.2751725,26.0247896 C71.3710246,25.9574329 71.4852313,25.8819118 71.6177928,25.7982262 C71.7503542,25.7145406 71.9073885,25.6390195 72.0888956,25.5716628 C72.2704028,25.5043061 72.4937178,25.4706277 72.7588406,25.4706277 C73.1626431,25.4706277 73.4675343,25.594115 73.6735144,25.8410896 C73.8794944,26.0880641 73.9824844,26.4524026 73.9824844,26.934105 L73.9824844,26.934105 L73.9824844,27.4178485 C73.2809286,27.4341774 72.6874614,27.4984725 72.2020827,27.6107336 C71.716704,27.7229948 71.3241182,27.8668932 71.0243255,28.0424288 C70.7245328,28.2179644 70.507336,28.4190139 70.3727352,28.6455774 C70.2381343,28.8721408 70.1708339,29.1078892 70.1708339,29.3528227 C70.1708339,29.6344961 70.2167206,29.878409 70.3084939,30.0845613 C70.4002671,30.2907136 70.5236512,30.4611464 70.6786461,30.5958598 C70.833641,30.7305732 71.0161679,30.8316083 71.2262267,30.898965 C71.4362856,30.9663217 71.66164,31 71.9022899,31 Z M72.2265556,30.234583 C72.0837971,30.234583 71.9512357,30.2172336 71.8288713,30.1825347 C71.7065069,30.1478358 71.6004578,30.0927257 71.5107239,30.0172046 C71.42099,29.9416835 71.3496108,29.8447306 71.2965862,29.7263461 C71.2435617,29.6079617 71.2170494,29.4671249 71.2170494,29.303836 C71.2170494,29.1323826 71.2670149,28.9772581 71.3669458,28.8384625 C71.4668767,28.6996668 71.6269701,28.5792412 71.847226,28.4771856 C72.0674819,28.37513 72.3529987,28.292465 72.7037766,28.2291905 C73.0545545,28.1659161 73.4807905,28.1261144 73.9824844,28.1097855 L73.9824844,28.1097855 L73.9824844,29.4018093 C73.8601201,29.5324405 73.7346966,29.6487839 73.606214,29.7508395 C73.4777314,29.8528951 73.3431305,29.9396423 73.2024115,30.0110813 C73.0616925,30.0825202 72.9117961,30.1376302 72.7527224,30.1764113 C72.5936487,30.2151925 72.4182598,30.234583 72.2265556,30.234583 Z M77.7941349,30.9020266 L77.7941349,26.952475 C77.9654451,26.532006 78.178563,26.2115514 78.4334888,25.9911113 C78.6884146,25.7706712 79.0055423,25.6604512 79.3848719,25.6604512 C79.5969702,25.6604512 79.7621621,25.6798417 79.8804477,25.7186228 C79.9987332,25.757404 80.0864277,25.7767945 80.1435311,25.7767945 C80.2414226,25.7767945 80.3046442,25.7257667 80.3331959,25.6237111 L80.3331959,25.6237111 L80.4739149,24.8093075 C80.3556293,24.7399097 80.2271467,24.6858202 80.0884671,24.6470391 C79.9497875,24.6082579 79.7947926,24.5888674 79.6234825,24.5888674 C79.2033647,24.5888674 78.8372913,24.7103135 78.5252621,24.9532059 C78.213233,25.1960982 77.9511692,25.5339022 77.739071,25.9666179 L77.739071,25.9666179 L77.6656523,24.9991309 C77.6493371,24.8889108 77.618746,24.8113486 77.5738791,24.7664441 C77.5290121,24.7215397 77.4474359,24.6990874 77.3291503,24.6990874 L77.3291503,24.6990874 L76.7050919,24.6990874 L76.7050919,30.9020266 L77.7941349,30.9020266 Z M83.5146698,31 C83.7961079,31 84.0693884,30.9499928 84.3345112,30.8499783 C84.599634,30.7499638 84.8260081,30.6121887 85.0136335,30.4366531 L85.0136335,30.4366531 L84.6954861,29.9161696 C84.6506192,29.8467718 84.599634,29.8120728 84.5425306,29.8120728 C84.5099001,29.8120728 84.4721711,29.8273812 84.4293436,29.8579979 C84.386516,29.8886145 84.3345112,29.9222929 84.273329,29.9590329 C84.2121468,29.9957729 84.1397479,30.0294513 84.0561322,30.0600679 C83.9725165,30.0906846 83.8736053,30.105993 83.7593986,30.105993 C83.5595368,30.105993 83.3963842,30.0427185 83.2699411,29.9161696 C83.1434979,29.7896206 83.0802763,29.595715 83.0802763,29.3344527 L83.0802763,29.3344527 L83.0802763,25.6114645 L84.8545598,25.6114645 L84.8545598,24.8215541 L83.0802763,24.8215541 L83.0802763,22.6845099 L82.5296365,22.6845099 C82.4602967,22.6845099 82.4031933,22.7039005 82.3583264,22.7426816 C82.3134595,22.7814628 82.2869472,22.83147 82.2787896,22.8927034 L82.2787896,22.8927034 L82.0279426,24.8093075 L81.0123182,24.9378975 L81.0123182,25.3726544 C81.0123182,25.4542988 81.0347517,25.5145116 81.0796186,25.5532928 C81.1244856,25.5920739 81.1795495,25.6114645 81.2448105,25.6114645 L81.2448105,25.6114645 L81.9912333,25.6114645 L81.9912333,29.4079327 C81.9912333,29.9222929 82.122775,30.3162275 82.3858584,30.5897365 C82.6489418,30.8632455 83.0252123,31 83.5146698,31 Z M87.289611,30.9020266 L87.289611,26.3340181 C87.5261821,26.0686735 87.7841671,25.858439 88.0635657,25.7033145 C88.3429644,25.54819 88.6437768,25.4706277 88.966003,25.4706277 C89.4065148,25.4706277 89.7338395,25.6002383 89.9479772,25.8594596 C90.1621149,26.1186808 90.2691837,26.4830193 90.2691837,26.952475 L90.2691837,26.952475 L90.2691837,30.9020266 L91.3582267,30.9020266 L91.3582267,26.952475 C91.3582267,26.6014038 91.3133598,26.2809492 91.2236259,25.9911113 C91.133892,25.7012734 91.0023503,25.4532783 90.8290008,25.247126 C90.6556512,25.0409737 90.4394742,24.8817669 90.1804695,24.7695058 C89.9214649,24.6572446 89.6226919,24.6011141 89.2841504,24.6011141 C88.8477175,24.6011141 88.4632894,24.6929641 88.1308661,24.8766642 C87.7984429,25.0603642 87.4976305,25.3012154 87.2284288,25.5992178 L87.2284288,25.5992178 L87.1427738,24.9256509 C87.1019856,24.7746086 87.0040941,24.6990874 86.8490992,24.6990874 L86.8490992,24.6990874 L86.200568,24.6990874 L86.200568,30.9020266 L87.289611,30.9020266 Z M95.5186157,30.9877533 C95.7429504,30.9877533 95.9693245,30.9683628 96.197738,30.9295816 C96.4261516,30.8908005 96.6474271,30.8326288 96.8615648,30.7550666 C97.0757025,30.6775043 97.276584,30.5785104 97.4642094,30.4580848 C97.6518348,30.3376592 97.8129479,30.1958019 97.9475487,30.0325129 L97.9475487,30.0325129 L97.6416378,29.6344961 C97.592692,29.5650983 97.5233522,29.5303994 97.4336183,29.5303994 C97.3642785,29.5303994 97.2816825,29.5620366 97.1858304,29.6253111 C97.0899783,29.6885856 96.9706731,29.7569628 96.8279146,29.8304429 C96.6851562,29.9039229 96.5148657,29.9723001 96.3170433,30.0355746 C96.1192209,30.0988491 95.8836695,30.1304863 95.610389,30.1304863 C95.3167145,30.1304863 95.0515917,30.0825202 94.8150205,29.9865879 C94.5784494,29.8906557 94.3745087,29.7457367 94.2031986,29.5518311 C94.0318885,29.3579254 93.8972877,29.1160537 93.7993961,28.8262158 C93.7015046,28.5363779 93.6484801,28.1955122 93.6403225,27.8036187 L93.6403225,27.8036187 L97.7640021,27.8036187 C97.8659725,27.8036187 97.9353123,27.7750431 97.9720216,27.717892 C98.0087309,27.6607409 98.0270856,27.5464386 98.0270856,27.3749852 C98.0270856,26.934105 97.9628443,26.541191 97.8343617,26.196243 C97.7058791,25.8512951 97.527431,25.5614572 97.2990175,25.3267293 C97.070604,25.0920015 96.7993629,24.9123836 96.4852943,24.7878758 C96.1712258,24.663368 95.8286055,24.6011141 95.4574335,24.6011141 C95.0087641,24.6011141 94.6049617,24.6796969 94.2460261,24.8368625 C93.8870906,24.9940281 93.5832191,25.210386 93.3344115,25.4859361 C93.0856039,25.7614862 92.8949194,26.0870435 92.762358,26.4626081 C92.6297966,26.8381727 92.5635159,27.2423129 92.5635159,27.6750286 C92.5635159,28.2098 92.6369345,28.6833379 92.7837718,29.0956426 C92.930609,29.5079472 93.1355694,29.8539156 93.3986528,30.133548 C93.6617362,30.4131803 93.9737654,30.625456 94.3347403,30.7703749 C94.6957152,30.9152939 95.0903404,30.9877533 95.5186157,30.9877533 Z M97.0481705,27.1239284 L93.6770318,27.1239284 C93.7504504,26.5850749 93.9380758,26.1635852 94.2399079,25.8594596 C94.5417401,25.5553339 94.9557396,25.403271 95.4819064,25.403271 C95.730714,25.403271 95.9519896,25.4451138 96.1457332,25.5287994 C96.3394768,25.612485 96.503649,25.7308695 96.6382498,25.8839529 C96.7728506,26.0370363 96.874821,26.2186953 96.9441608,26.4289298 C97.0135006,26.6391643 97.0481705,26.8708305 97.0481705,27.1239284 L97.0481705,27.1239284 Z M100.504964,30.9020266 L100.504964,26.952475 C100.676274,26.532006 100.889392,26.2115514 101.144318,25.9911113 C101.399244,25.7706712 101.716372,25.6604512 102.095701,25.6604512 C102.3078,25.6604512 102.472991,25.6798417 102.591277,25.7186228 C102.709563,25.757404 102.797257,25.7767945 102.85436,25.7767945 C102.952252,25.7767945 103.015474,25.7257667 103.044025,25.6237111 L103.044025,25.6237111 L103.184744,24.8093075 C103.066459,24.7399097 102.937976,24.6858202 102.799296,24.6470391 C102.660617,24.6082579 102.505622,24.5888674 102.334312,24.5888674 C101.914194,24.5888674 101.548121,24.7103135 101.236091,24.9532059 C100.924062,25.1960982 100.661999,25.5339022 100.4499,25.9666179 L100.4499,25.9666179 L100.376482,24.9991309 C100.360166,24.8889108 100.329575,24.8113486 100.284708,24.7664441 C100.239841,24.7215397 100.158265,24.6990874 100.03998,24.6990874 L100.03998,24.6990874 L99.4159213,24.6990874 L99.4159213,30.9020266 L100.504964,30.9020266 Z" id="CertifedPartner" fill="#666666"></path>
                </g>
            </g>
        </g>
    </g>
</svg>